<?xml version="1.0" encoding="utf-8"?>
<!-- Generator: Adobe Illustrator 21.0.0, SVG Export Plug-In . SVG Version: 6.00 Build 0)  -->
<svg version="1.1" id="图层_1" xmlns="http://www.w3.org/2000/svg" xmlns:xlink="http://www.w3.org/1999/xlink" x="0px" y="0px"
	 viewBox="0 0 447 121.9" style="enable-background:new 0 0 447 121.9;" xml:space="preserve">
<style type="text/css">
	.st0{fill:url(#SVGID_1_);}
	.st1{fill:url(#SVGID_2_);}
	.st2{fill:url(#SVGID_3_);}
	.st3{fill:url(#SVGID_4_);}
	.st4{fill:url(#SVGID_5_);}
	.st5{fill:url(#SVGID_6_);}
	.st6{fill:url(#SVGID_7_);}
	.st7{fill:url(#SVGID_8_);}
	.st8{fill:url(#SVGID_9_);}
	.st9{fill:none;stroke:#9B5F10;stroke-width:2;stroke-linecap:round;stroke-linejoin:round;stroke-miterlimit:10;}
</style>
<g>
	<g>
		<linearGradient id="SVGID_1_" gradientUnits="userSpaceOnUse" x1="88.0747" y1="121.8306" x2="88.0747" y2="1.9683">
			<stop  offset="0" style="stop-color:#360117"/>
			<stop  offset="1" style="stop-color:#840338"/>
		</linearGradient>
		<path class="st0" d="M171.2,31.6h3.3l0.6-8V2.9l-49.1,0H73.8l-1.7,8v11.5h-1.5l-7.1,33.1V45L60.4,2H37.8L13.1,45v9.6H12l-2.3,8
			v20.7h9.8l-5.7,9.6H3.2l-2.2,8v20.7h42.4l1.8-8V99l13.3-23.7v-9.6h2.7L59,76.3v15.3l-7,9.6v20.7h20.4l8.6-12.2l3.7,12.2h19.9
			v-20.7l-1.4-4.2h5.2l8.1-53.9V31.6l9.1,0l-7.1,52l-3.8,0.2l-1.1,8v20.7l29.2-1.6v11h21.6l0.9-12.1l3.7-0.2l0.6-8V80.8l-2.1,0.1
			L171.2,31.6z M42.1,46.4l1.7-3.1l0.2,3.1H42.1z M98.8,50.6l-0.3,1.6v-1.6H98.8z"/>
		<linearGradient id="SVGID_2_" gradientUnits="userSpaceOnUse" x1="195.2108" y1="121.9199" x2="195.2108" y2="3.3223">
			<stop  offset="0" style="stop-color:#360117"/>
			<stop  offset="1" style="stop-color:#840338"/>
		</linearGradient>
		<path class="st1" d="M177,11.5v5.7h-0.4l-0.5,7.3v20.7l6.9,24.1l-13.2,32.1v20.7h20.4l5.2-13.2l4.4,13.2h20.8v-20.7l-11.1-31.1
			l11-31.8l0.1-14.4V3.3h-43.1L177,11.5z M197,32.2h0.4l-0.2,0.6L197,32.2z"/>
		<linearGradient id="SVGID_3_" gradientUnits="userSpaceOnUse" x1="355.7391" y1="121.3911" x2="355.7391" y2="6.0566">
			<stop  offset="0" style="stop-color:#360117"/>
			<stop  offset="1" style="stop-color:#840338"/>
		</linearGradient>
		<polygon class="st2" points="373.8,87.8 363.8,34.7 367.4,34.7 367.4,14.1 365.9,6.1 328,6.1 328,26.7 329.2,34.7 336.6,34.7 
			345.5,91.8 339.7,92.7 339.7,113.4 340.8,121.4 383.4,115.3 383.4,94.6 381.9,86.6 		"/>
		<linearGradient id="SVGID_4_" gradientUnits="userSpaceOnUse" x1="408.7173" y1="121.7046" x2="408.7173" y2="1">
			<stop  offset="0" style="stop-color:#360117"/>
			<stop  offset="1" style="stop-color:#840338"/>
		</linearGradient>
		<path class="st3" d="M446,93.3c0,0.1,0,0.1,0,0.2c0-0.8-0.1-1.6-0.3-2.5l-21-75.4h-26.2L395.8,1H374v14.6h-2.5v20.7l1.5,7.6h4.4
			l11.5,77.8h24.8V101l-10.2-57.2h1l12.3,49.7h-1.1v20.7l1.8,7.5h19.2c0.4,0,0.8,0,1.2-0.1c0.1,0,0.2,0,0.3,0c0.3,0,0.6-0.1,0.9-0.1
			c0.1,0,0.2,0,0.3-0.1c0.4-0.1,0.7-0.2,1.1-0.3c0.1,0,0.1,0,0.2-0.1c0.3-0.1,0.6-0.2,0.8-0.3c0.1,0,0.2-0.1,0.3-0.1
			c0.2-0.1,0.5-0.3,0.7-0.4c0.1,0,0.1-0.1,0.2-0.1c0.3-0.2,0.5-0.4,0.8-0.6c0.1,0,0.1-0.1,0.2-0.2c0.2-0.2,0.4-0.4,0.5-0.5
			c0.1-0.1,0.1-0.1,0.2-0.2c0.2-0.2,0.3-0.4,0.5-0.7c0,0,0-0.1,0.1-0.1c0,0,0,0,0,0c0-0.1,0.1-0.2,0.1-0.2c0.1-0.1,0.2-0.3,0.2-0.4
			c0-0.1,0.1-0.2,0.1-0.3c0-0.1,0.1-0.2,0.1-0.3c0,0,0-0.1,0-0.1c0-0.1,0-0.2,0.1-0.2c0-0.2,0.1-0.3,0.1-0.5c0-0.1,0-0.2,0.1-0.3
			c0-0.1,0-0.1,0-0.2c0,0,0-0.1,0-0.1c0.1-0.4,0.1-0.7,0.1-1.1V93.3z M445.9,94.4c0,0.1,0,0.2-0.1,0.4c0,0,0,0,0,0
			C445.9,94.6,445.9,94.5,445.9,94.4C445.9,94.4,445.9,94.4,445.9,94.4z M445.8,95C445.8,95,445.8,95,445.8,95
			c0,0.2-0.1,0.3-0.1,0.5c0,0.1,0,0.2-0.1,0.2v0C445.7,95.5,445.7,95.3,445.8,95z M445.3,96.4C445.3,96.5,445.3,96.5,445.3,96.4
			c0-0.1,0.1-0.3,0.2-0.5c0,0.1,0,0.1-0.1,0.2C445.4,96.2,445.4,96.3,445.3,96.4z M445,97.1c0,0-0.1,0.1-0.1,0.1c0,0,0,0,0,0
			c0.1-0.1,0.2-0.3,0.3-0.4c0,0,0,0,0,0.1C445,96.9,445,97,445,97.1z M442.6,99.5C442.5,99.5,442.5,99.5,442.6,99.5
			c0,0,0.1-0.1,0.2-0.1c0,0,0,0,0,0C442.7,99.4,442.6,99.5,442.6,99.5z M440.6,100.4c-0.1,0-0.1,0-0.2,0.1c0.1,0,0.3-0.1,0.4-0.1
			c0,0,0,0-0.1,0C440.7,100.4,440.6,100.4,440.6,100.4z M438.2,101c0.1,0,0.2,0,0.2,0c0,0-0.1,0-0.1,0
			C438.3,101,438.3,101,438.2,101z M439.3,100.8c0.1,0,0.3-0.1,0.4-0.1c-0.1,0-0.1,0-0.2,0.1C439.5,100.8,439.4,100.8,439.3,100.8z
			 M441.5,100.1c0.1,0,0.2-0.1,0.3-0.2c-0.1,0-0.1,0.1-0.2,0.1C441.5,100.1,441.5,100.1,441.5,100.1z M444.3,97.9
			c0-0.1,0.1-0.1,0.1-0.2C444.4,97.8,444.4,97.8,444.3,97.9C444.4,97.9,444.4,97.9,444.3,97.9z M421.3,91.1c0-0.2,0-0.4-0.1-0.6
			C421.3,90.7,421.3,90.9,421.3,91.1z"/>
		<linearGradient id="SVGID_5_" gradientUnits="userSpaceOnUse" x1="280.7467" y1="121.9199" x2="280.7467" y2="1.2153">
			<stop  offset="0" style="stop-color:#360117"/>
			<stop  offset="1" style="stop-color:#840338"/>
		</linearGradient>
		<path class="st4" d="M326.9,93.3L319.9,76l3-7.4h4.3V48l-1.1-8h-1.8V26.5l-1.1-7.9h-0.7v-3.2l-5.4-13.1h-20.6v11.8l-4.5-13h-21.7
			v17.4h-43.1v20.7l0.2,82.4h24.1V101l-1-29.6h7.8l0.9,20.6c-0.6,0.6-1.4,0.9-2.2,0.9h-1.8v20.7l0.3,8h16.7c0.4,0,0.9,0,1.3-0.1
			c0.1,0,0.2,0,0.4-0.1c0.3,0,0.6-0.1,0.9-0.2c0.1,0,0.2-0.1,0.3-0.1c0.4-0.1,0.8-0.2,1.1-0.4c0,0,0,0,0.1,0c0.3-0.1,0.7-0.3,1-0.5
			c0.1-0.1,0.2-0.1,0.3-0.2c0.3-0.1,0.5-0.3,0.7-0.5c0.1-0.1,0.2-0.1,0.3-0.2c0.3-0.2,0.6-0.5,0.9-0.7c0,0,0.1-0.1,0.1-0.1
			c0.2-0.2,0.5-0.5,0.7-0.7c0.1-0.1,0.1-0.2,0.2-0.3c0.2-0.2,0.3-0.4,0.5-0.7c0-0.1,0.1-0.1,0.1-0.2v5h19.2l2.6-5.8l2.2,5.8h29.4
			v-20.7l-1.1-8H326.9z M279.4,98.2c-0.1,0-0.1,0.1-0.2,0.1C279.3,98.3,279.4,98.2,279.4,98.2C279.5,98.1,279.4,98.1,279.4,98.2
			C279.4,98.1,279.4,98.2,279.4,98.2z M274.7,100.7L274.7,100.7c0.1,0,0.3-0.1,0.4-0.1c0,0,0,0,0,0
			C274.9,100.6,274.8,100.6,274.7,100.7z M273.5,100.9c0.1,0,0.2,0,0.2,0c0,0,0,0,0,0C273.7,100.8,273.6,100.8,273.5,100.9z
			 M275.9,100.3c0.1,0,0.2-0.1,0.3-0.1c0,0,0,0-0.1,0C276.1,100.2,276,100.2,275.9,100.3z M277.5,99.6
			C277.5,99.6,277.5,99.5,277.5,99.6C277.5,99.5,277.5,99.5,277.5,99.6C277.5,99.6,277.5,99.6,277.5,99.6z M281,96.2
			c0,0-0.1,0.1-0.1,0.1c0.1-0.1,0.1-0.2,0.2-0.3C281.1,96,281.1,96.1,281,96.2z M281.4,95.5c0.1-0.1,0.1-0.2,0.2-0.4
			c0,0.1-0.1,0.2-0.1,0.2C281.4,95.4,281.4,95.4,281.4,95.5z M282.2,92.5c0,0.1,0,0.2,0,0.3c0,0,0,0,0,0c0-0.2,0-0.3,0.1-0.5
			C282.3,92.3,282.3,92.4,282.2,92.5z M282.1,93.3c0,0.1,0,0.2-0.1,0.3c0,0,0,0,0,0.1C282.1,93.5,282.1,93.4,282.1,93.3
			C282.1,93.2,282.1,93.3,282.1,93.3z M281.9,94.2c0,0.1-0.1,0.2-0.1,0.3c0,0,0,0.1-0.1,0.1C281.8,94.4,281.9,94.3,281.9,94.2
			C281.9,94.1,281.9,94.1,281.9,94.2z M282.3,91.6c0,0.1,0,0.1,0,0.2c0-0.3,0-0.6,0-0.8l-2.9-40.7l11.1,31.9l-8.1,16.4V91.6z
			 M278.3,99c0.1-0.1,0.2-0.1,0.3-0.2c0,0,0,0-0.1,0.1C278.4,99,278.4,99,278.3,99z"/>
	</g>
	<g>
		<linearGradient id="SVGID_6_" gradientUnits="userSpaceOnUse" x1="1" y1="51.7633" x2="126.8839" y2="51.7633">
			<stop  offset="5.618000e-03" style="stop-color:#F0CC7E"/>
			<stop  offset="0.3618" style="stop-color:#F4DB8C"/>
			<stop  offset="0.3646" style="stop-color:#F9F3E5"/>
			<stop  offset="0.4272" style="stop-color:#F6E7C8"/>
			<stop  offset="0.4981" style="stop-color:#F3DCAF"/>
			<stop  offset="0.5778" style="stop-color:#F1D49C"/>
			<stop  offset="0.6698" style="stop-color:#F0CE8E"/>
			<stop  offset="0.7855" style="stop-color:#EFCB86"/>
			<stop  offset="1" style="stop-color:#EFCA84"/>
		</linearGradient>
		<path class="st5" d="M43.9,22.7L31.5,45.2H13.1L37.8,2h22.6l3.1,43.2H45L43.9,22.7z M37.1,93.2h8.2l-1.8,8H1l2.2-8h10.6l17.9-30.3
			h-22l2.3-8h13.8l2.2-8.2h19.9l-2,8.2h12.6L37.1,93.2z M73.8,2.9h53.1l-1.2,8h-18.4l-4.1,11.5h13.2l-8.1,54.1H96l8.6,24.9H84.7
			l-3.7-12.3l-8.6,12.3H51.9l18.2-24.9H59l11.5-54.1h11.6L86.6,11H72.1L73.8,2.9z M98.5,38l-5.2,30.1l1.7,5.2l7.3-43.2H81.4
			l-8.4,42.6l3.2-4.5L82.1,38H98.5z"/>
		<linearGradient id="SVGID_7_" gradientUnits="userSpaceOnUse" x1="113.4511" y1="52.2723" x2="220.6305" y2="52.2723">
			<stop  offset="5.618000e-03" style="stop-color:#F0CC7E"/>
			<stop  offset="0.3618" style="stop-color:#F4DB8C"/>
			<stop  offset="0.3646" style="stop-color:#F9F3E5"/>
			<stop  offset="0.4272" style="stop-color:#F6E7C8"/>
			<stop  offset="0.4981" style="stop-color:#F3DCAF"/>
			<stop  offset="0.5778" style="stop-color:#F1D49C"/>
			<stop  offset="0.6698" style="stop-color:#F0CE8E"/>
			<stop  offset="0.7855" style="stop-color:#EFCB86"/>
			<stop  offset="1" style="stop-color:#EFCA84"/>
		</linearGradient>
		<path class="st6" d="M126.1,2.9h49.1l-0.6,8h-3.4l-5.4,70.4l3.7-0.2l-0.6,8l-3.7,0.2l-0.9,12.2h-21.6l1.1-11.1l-30.4,1.7l1.1-8
			l3.8-0.2l9.9-72.9h-3.5L126.1,2.9z M145.5,29.1h4.7l1.9-18.2h-4.6L145.5,29.1z M142.6,55.7h4.9l1.9-18.5h-4.7L142.6,55.7z
			 M139.6,82.8l5.1-0.3l1.9-18.8h-4.9L139.6,82.8z M192.5,17.3l4.7,15.6l7.6-21.4H177l0.6-8.2h43.1l-0.1,14.5l-14.6,42.4l14.7,41.4
			h-20.8l-4.4-13.2l-5.2,13.2h-20.4l16.7-40.7l-10.5-36.4l0.5-7.3H192.5z"/>
		<linearGradient id="SVGID_8_" gradientUnits="userSpaceOnUse" x1="227.0936" y1="51.4266" x2="334.3983" y2="51.4266">
			<stop  offset="5.618000e-03" style="stop-color:#F0CC7E"/>
			<stop  offset="0.3618" style="stop-color:#F4DB8C"/>
			<stop  offset="0.3646" style="stop-color:#F9F3E5"/>
			<stop  offset="0.4272" style="stop-color:#F6E7C8"/>
			<stop  offset="0.4981" style="stop-color:#F3DCAF"/>
			<stop  offset="0.5778" style="stop-color:#F1D49C"/>
			<stop  offset="0.6698" style="stop-color:#F0CE8E"/>
			<stop  offset="0.7855" style="stop-color:#EFCB86"/>
			<stop  offset="1" style="stop-color:#EFCA84"/>
		</linearGradient>
		<path class="st7" d="M300.9,26.6l6.8,18.5l2.2-5h16.2l1.1,8h-4.3L315.8,66l11.1,27.6h6.5l1.1,8H305l-2.2-5.8l-2.6,5.8h-19.2
			l13.7-27.7l-16.4-47.4H249l0.5,16.3h29.3l3.5,48.4c0.4,5.5-4.2,10-10.2,10h-16.7l-0.3-8h1.8c1.7,0,3.1-1.4,3-3l-1.7-39.4h-8.5
			l1.6,50.4h-24.1l-0.2-82.7h48.7l-5.5-17.4H292l6.1,17.4h25.1l1.1,7.9H300.9z M317.1,2.4l5.4,13.1h-21.2l-4.8-13.1H317.1z"/>
		<linearGradient id="SVGID_9_" gradientUnits="userSpaceOnUse" x1="328.0299" y1="51.2151" x2="446.0044" y2="51.2151">
			<stop  offset="5.618000e-03" style="stop-color:#F0CC7E"/>
			<stop  offset="0.3618" style="stop-color:#F4DB8C"/>
			<stop  offset="0.3646" style="stop-color:#F9F3E5"/>
			<stop  offset="0.4272" style="stop-color:#F6E7C8"/>
			<stop  offset="0.4981" style="stop-color:#F3DCAF"/>
			<stop  offset="0.5778" style="stop-color:#F1D49C"/>
			<stop  offset="0.6698" style="stop-color:#F0CE8E"/>
			<stop  offset="0.7855" style="stop-color:#EFCB86"/>
			<stop  offset="1" style="stop-color:#EFCA84"/>
		</linearGradient>
		<path class="st8" d="M328,6.1h37.8l1.6,8h-7.5l13.9,74l8.1-1.2l1.6,8l-42.6,6.1l-1.2-8l9-1.4l-12-77.6h-7.4L328,6.1z M404.6,23.3
			h-4.6l13.8,78.1H389l-11.5-78.1H373l-1.5-7.6h4.8L374,1h21.8l2.7,14.7h26.2l21,75.7c1.5,5.5-2.5,10-8.9,10h-19.2l-1.8-7.5h2.6
			c2,0,3.3-1.4,2.9-3.1L404.6,23.3z"/>
	</g>
	<g>
		<path class="st9" d="M43.9,22.7L31.5,45.2H13.1L37.8,2h22.6l3.1,43.2H45L43.9,22.7z M37.1,93.2h8.2l-1.8,8H1l2.2-8h10.6l17.9-30.3
			h-22l2.3-8h13.8l2.2-8.2h19.9l-2,8.2h12.6L37.1,93.2z M73.8,2.9h53.1l-1.2,8h-18.4l-4.1,11.5h13.2l-8.1,54.1H96l8.6,24.9H84.7
			l-3.7-12.3l-8.6,12.3H51.9l18.2-24.9H59l11.5-54.1h11.6L86.6,11H72.1L73.8,2.9z M98.5,38l-5.2,30.1l1.7,5.2l7.3-43.2H81.4
			l-8.4,42.6l3.2-4.5L82.1,38H98.5z"/>
		<path class="st9" d="M126.1,2.9h49.1l-0.6,8h-3.4l-5.4,70.4l3.7-0.2l-0.6,8l-3.7,0.2l-0.9,12.2h-21.6l1.1-11.1l-30.4,1.7l1.1-8
			l3.8-0.2l9.9-72.9h-3.5L126.1,2.9z M145.5,29.1h4.7l1.9-18.2h-4.6L145.5,29.1z M142.6,55.7h4.9l1.9-18.5h-4.7L142.6,55.7z
			 M139.6,82.8l5.1-0.3l1.9-18.8h-4.9L139.6,82.8z M192.5,17.3l4.7,15.6l7.6-21.4H177l0.6-8.2h43.1l-0.1,14.5l-14.6,42.4l14.7,41.4
			h-20.8l-4.4-13.2l-5.2,13.2h-20.4l16.7-40.7l-10.5-36.4l0.5-7.3H192.5z"/>
		<path class="st9" d="M300.9,26.6l6.8,18.5l2.2-5h16.2l1.1,8h-4.3L315.8,66l11.1,27.6h6.5l1.1,8H305l-2.2-5.8l-2.6,5.8h-19.2
			l13.7-27.7l-16.4-47.4H249l0.5,16.3h29.3l3.5,48.4c0.4,5.5-4.2,10-10.2,10h-16.7l-0.3-8h1.8c1.7,0,3.1-1.4,3-3l-1.7-39.4h-8.5
			l1.6,50.4h-24.1l-0.2-82.7h48.7l-5.5-17.4H292l6.1,17.4h25.1l1.1,7.9H300.9z M317.1,2.4l5.4,13.1h-21.2l-4.8-13.1H317.1z"/>
		<path class="st9" d="M328,6.1h37.8l1.6,8h-7.5l13.9,74l8.1-1.2l1.6,8l-42.6,6.1l-1.2-8l9-1.4l-12-77.6h-7.4L328,6.1z M404.6,23.3
			h-4.6l13.8,78.1H389l-11.5-78.1H373l-1.5-7.6h4.8L374,1h21.8l2.7,14.7h26.2l21,75.7c1.5,5.5-2.5,10-8.9,10h-19.2l-1.8-7.5h2.6
			c2,0,3.3-1.4,2.9-3.1L404.6,23.3z"/>
	</g>
</g>
</svg>
