<?xml version="1.0" encoding="utf-8"?>
<!-- Generator: Adobe Illustrator 21.0.0, SVG Export Plug-In . SVG Version: 6.00 Build 0)  -->
<svg version="1.1" id="图层_1" xmlns="http://www.w3.org/2000/svg" xmlns:xlink="http://www.w3.org/1999/xlink" x="0px" y="0px"
	 viewBox="0 0 650 714.1" style="enable-background:new 0 0 650 714.1;" xml:space="preserve">
<style type="text/css">
	.st0{fill:#893344;}
	.st1{fill:url(#SVGID_1_);}
	.st2{opacity:0.61;fill:#FFFFFF;enable-background:new    ;}
	.st3{fill:url(#SVGID_2_);}
	.st4{fill:url(#SVGID_3_);}
	.st5{fill:url(#SVGID_4_);}
	.st6{fill:#FFFFFF;}
	.st7{fill:url(#SVGID_5_);}
	.st8{fill:url(#SVGID_6_);}
	.st9{fill:url(#SVGID_7_);}
	.st10{fill:url(#SVGID_8_);}
	.st11{fill:url(#SVGID_9_);}
	.st12{fill:url(#SVGID_10_);}
	.st13{fill:none;stroke:url(#SVGID_11_);stroke-width:11;stroke-miterlimit:10;}
	.st14{fill:none;stroke:url(#SVGID_12_);stroke-width:3;stroke-miterlimit:10;}
	.st15{fill:none;stroke:url(#SVGID_13_);stroke-miterlimit:10;}
	.st16{fill:none;stroke:url(#SVGID_14_);stroke-width:2;stroke-miterlimit:10;}
	.st17{fill:none;stroke:url(#SVGID_15_);stroke-width:3;stroke-miterlimit:10;}
	.st18{fill:none;stroke:url(#SVGID_16_);stroke-miterlimit:10;}
	.st19{fill:none;stroke:url(#SVGID_17_);stroke-width:8;stroke-miterlimit:10;}
	.st20{fill:none;stroke:url(#SVGID_18_);stroke-miterlimit:10;}
	.st21{fill:none;stroke:url(#SVGID_19_);stroke-miterlimit:10;}
	.st22{fill:none;stroke:url(#SVGID_20_);stroke-width:2;stroke-miterlimit:10;}
	.st23{fill:url(#SVGID_21_);}
	.st24{fill:none;stroke:url(#SVGID_22_);stroke-miterlimit:10;}
	.st25{fill:none;stroke:url(#SVGID_23_);stroke-width:2;stroke-miterlimit:10;}
	.st26{fill:url(#SVGID_24_);}
	.st27{fill:url(#SVGID_25_);}
	.st28{fill:url(#SVGID_26_);}
	.st29{fill:url(#SVGID_27_);}
	.st30{fill:url(#SVGID_28_);}
	.st31{opacity:0.2;enable-background:new    ;}
	.st32{fill:#FFA492;}
</style>
<g>
	<path class="st0" d="M620.2,179.3H29.8c-16.5,0-29.8,15-29.8,33.4v49.1v369.8v49.1c0,18.5,13.4,33.4,29.8,33.4h590.3
		c16.5,0,29.8-15,29.8-33.4v-49.1V261.8v-49.1C650,194.3,636.6,179.3,620.2,179.3z"/>
	<g>
		<g>
			<g>
				
					<linearGradient id="SVGID_1_" gradientUnits="userSpaceOnUse" x1="510.7515" y1="2453.1414" x2="510.7515" y2="2603.9956" gradientTransform="matrix(0.8589 -0.5121 -0.5121 -0.8589 934.2594 2627.3169)">
					<stop  offset="0" style="stop-color:#FFFFFF;stop-opacity:0"/>
					<stop  offset="1" style="stop-color:#FFFFFF;stop-opacity:0.1"/>
				</linearGradient>
				<polygon class="st1" points="118.8,257.5 114.5,260 37.3,130.5 41.6,127.9 				"/>
				
					<ellipse transform="matrix(0.8589 -0.5121 0.5121 0.8589 -60.614 38.4077)" class="st2" cx="39.4" cy="129.2" rx="2.5" ry="2.5"/>
			</g>
			<g>
				
					<linearGradient id="SVGID_2_" gradientUnits="userSpaceOnUse" x1="318.3592" y1="1804.8386" x2="318.3592" y2="1955.6384" gradientTransform="matrix(0.9338 -0.3578 -0.3578 -0.9338 526.7376 2078.9675)">
					<stop  offset="0" style="stop-color:#FFFFFF;stop-opacity:0"/>
					<stop  offset="1" style="stop-color:#FFFFFF;stop-opacity:0.1"/>
				</linearGradient>
				<polygon class="st3" points="180.6,278.8 175.9,280.6 122,139.8 126.6,138 				"/>
				
					<ellipse transform="matrix(0.9338 -0.3578 0.3578 0.9338 -41.4662 53.6746)" class="st2" cx="124.3" cy="138.9" rx="2.5" ry="2.5"/>
			</g>
			<g>
				
					<linearGradient id="SVGID_3_" gradientUnits="userSpaceOnUse" x1="342.457" y1="2028.691" x2="342.457" y2="2134.1931" gradientTransform="matrix(0.9157 -0.4018 -0.4018 -0.9157 630.9355 2235.0757)">
					<stop  offset="0" style="stop-color:#FFFFFF;stop-opacity:0"/>
					<stop  offset="1" style="stop-color:#FFFFFF;stop-opacity:0.1"/>
				</linearGradient>
				<polygon class="st4" points="131,239.1 127.8,240.5 85.4,143.9 88.6,142.5 				"/>
				<ellipse transform="matrix(0.9157 -0.4018 0.4018 0.9157 -50.2113 47.022)" class="st2" cx="87" cy="143.2" rx="1.7" ry="1.7"/>
			</g>
			<g>
				
					<linearGradient id="SVGID_4_" gradientUnits="userSpaceOnUse" x1="610.6185" y1="2643.8955" x2="610.6185" y2="2794.7734" gradientTransform="matrix(0.8239 -0.5668 -0.5668 -0.8239 1111.3302 2811.1082)">
					<stop  offset="0" style="stop-color:#FFFFFF;stop-opacity:0"/>
					<stop  offset="1" style="stop-color:#FFFFFF;stop-opacity:0.5"/>
				</linearGradient>
				<polygon class="st5" points="117.9,285.3 113.8,288.1 28.3,163.8 32.4,161 				"/>
				
					<ellipse transform="matrix(0.8239 -0.5668 0.5668 0.8239 -86.7206 45.7798)" class="st6" cx="30.3" cy="162.4" rx="2.5" ry="2.5"/>
			</g>
			<g>
				
					<linearGradient id="SVGID_5_" gradientUnits="userSpaceOnUse" x1="718.154" y1="6249.9575" x2="718.154" y2="6349.2314" gradientTransform="matrix(0.7849 -0.6196 -0.2357 -0.2985 951.7475 2530.3452)">
					<stop  offset="0" style="stop-color:#FFFFFF;stop-opacity:0"/>
					<stop  offset="1" style="stop-color:#FFFFFF;stop-opacity:0.3"/>
				</linearGradient>
				<polygon class="st7" points="43.6,218.7 41,220.8 17.6,191.1 20.2,189.1 				"/>
				
					<ellipse transform="matrix(0.7849 -0.6196 0.6196 0.7849 -113.7239 52.5919)" class="st6" cx="18.9" cy="190.1" rx="1.6" ry="1.6"/>
			</g>
		</g>
		<g>
			<g>
				
					<linearGradient id="SVGID_6_" gradientUnits="userSpaceOnUse" x1="6960.6553" y1="-1392.4701" x2="6960.6553" y2="-1241.6158" gradientTransform="matrix(-0.8589 -0.5121 0.5121 -0.8589 7212.9009 2627.3169)">
					<stop  offset="0" style="stop-color:#FFFFFF;stop-opacity:0"/>
					<stop  offset="1" style="stop-color:#FFFFFF;stop-opacity:0.1"/>
				</linearGradient>
				<polygon class="st8" points="519.2,257.5 523.5,260 600.7,130.5 596.4,127.9 				"/>
				
					<ellipse transform="matrix(0.5121 -0.8589 0.8589 0.5121 181.0859 577.1411)" class="st2" cx="598.6" cy="129.2" rx="2.5" ry="2.5"/>
			</g>
			<g>
				
					<linearGradient id="SVGID_7_" gradientUnits="userSpaceOnUse" x1="7330.3901" y1="-881.9301" x2="7330.3901" y2="-731.1304" gradientTransform="matrix(-0.9338 -0.3578 0.3578 -0.9338 7620.4224 2078.9675)">
					<stop  offset="0" style="stop-color:#FFFFFF;stop-opacity:0"/>
					<stop  offset="1" style="stop-color:#FFFFFF;stop-opacity:0.1"/>
				</linearGradient>
				<polygon class="st9" points="457.4,278.8 462.1,280.6 516,139.8 511.4,138 				"/>
				
					<ellipse transform="matrix(0.3578 -0.9338 0.9338 0.3578 200.2394 568.9167)" class="st2" cx="513.7" cy="138.9" rx="2.5" ry="2.5"/>
			</g>
			<g>
				
					<linearGradient id="SVGID_8_" gradientUnits="userSpaceOnUse" x1="7218.9409" y1="-988.1709" x2="7218.9409" y2="-882.6689" gradientTransform="matrix(-0.9157 -0.4018 0.4018 -0.9157 7516.2251 2235.0757)">
					<stop  offset="0" style="stop-color:#FFFFFF;stop-opacity:0"/>
					<stop  offset="1" style="stop-color:#FFFFFF;stop-opacity:0.1"/>
				</linearGradient>
				<polygon class="st10" points="507,239.1 510.2,240.5 552.6,143.9 549.4,142.5 				"/>
				
					<ellipse transform="matrix(0.4018 -0.9157 0.9157 0.4018 198.4269 590.1908)" class="st2" cx="551" cy="143.2" rx="1.7" ry="1.7"/>
			</g>
			<g>
				
					<linearGradient id="SVGID_9_" gradientUnits="userSpaceOnUse" x1="6796.9614" y1="-1611.984" x2="6796.9614" y2="-1461.106" gradientTransform="matrix(-0.8239 -0.5668 0.5668 -0.8239 7035.8301 2811.1082)">
					<stop  offset="0" style="stop-color:#FFFFFF;stop-opacity:0"/>
					<stop  offset="1" style="stop-color:#FFFFFF;stop-opacity:0.5"/>
				</linearGradient>
				<polygon class="st11" points="520.1,285.3 524.2,288.1 609.7,163.8 605.6,161 				"/>
				
					<ellipse transform="matrix(0.5668 -0.8239 0.8239 0.5668 129.4978 570.9935)" class="st6" cx="607.7" cy="162.4" rx="2.5" ry="2.5"/>
			</g>
			<g>
				
					<linearGradient id="SVGID_10_" gradientUnits="userSpaceOnUse" x1="6611.6421" y1="-5982.6162" x2="6611.6421" y2="-5883.3423" gradientTransform="matrix(-0.7849 -0.6196 0.2357 -0.2985 7195.4126 2530.3452)">
					<stop  offset="0" style="stop-color:#FFFFFF;stop-opacity:0"/>
					<stop  offset="1" style="stop-color:#FFFFFF;stop-opacity:0.3"/>
				</linearGradient>
				<polygon class="st12" points="594.4,218.7 597,220.8 620.4,191.1 617.8,189.1 				"/>
				
					<ellipse transform="matrix(0.6196 -0.7849 0.7849 0.6196 86.267 558.2451)" class="st6" cx="619.1" cy="190.1" rx="1.6" ry="1.6"/>
			</g>
		</g>
		<g>
			
				<linearGradient id="SVGID_11_" gradientUnits="userSpaceOnUse" x1="185" y1="513.8" x2="475" y2="513.8" gradientTransform="matrix(1 0 0 -1 0 714)">
				<stop  offset="0" style="stop-color:#FFFFFF;stop-opacity:0"/>
				<stop  offset="1" style="stop-color:#FFFFFF;stop-opacity:0.5"/>
			</linearGradient>
			<circle class="st13" cx="330" cy="200.2" r="139.5"/>
			
				<linearGradient id="SVGID_12_" gradientUnits="userSpaceOnUse" x1="207.9534" y1="391.7534" x2="452.0466" y2="635.8466" gradientTransform="matrix(1 0 0 -1 0 714)">
				<stop  offset="0" style="stop-color:#FFFFFF;stop-opacity:0.5"/>
				<stop  offset="1" style="stop-color:#FFFFFF;stop-opacity:0"/>
			</linearGradient>
			<circle class="st14" cx="330" cy="200.2" r="171.1"/>
			
				<linearGradient id="SVGID_13_" gradientUnits="userSpaceOnUse" x1="330" y1="313.6" x2="330" y2="714" gradientTransform="matrix(1 0 0 -1 0 714)">
				<stop  offset="0" style="stop-color:#FFFFFF;stop-opacity:0.5"/>
				<stop  offset="1" style="stop-color:#FFFFFF;stop-opacity:0"/>
			</linearGradient>
			<circle class="st15" cx="330" cy="200.2" r="199.7"/>
			
				<linearGradient id="SVGID_14_" gradientUnits="userSpaceOnUse" x1="330" y1="323.5" x2="330" y2="704.1" gradientTransform="matrix(1 0 0 -1 0 714)">
				<stop  offset="0" style="stop-color:#FFFFFF;stop-opacity:0"/>
				<stop  offset="1" style="stop-color:#FFFFFF;stop-opacity:0.5"/>
			</linearGradient>
			<circle class="st16" cx="330" cy="200.2" r="189.3"/>
			
				<linearGradient id="SVGID_15_" gradientUnits="userSpaceOnUse" x1="230.1308" y1="571.4595" x2="429.8692" y2="456.1405" gradientTransform="matrix(1 0 0 -1 0 714)">
				<stop  offset="0" style="stop-color:#FFFFFF;stop-opacity:0"/>
				<stop  offset="1" style="stop-color:#FFFFFF;stop-opacity:0.5"/>
			</linearGradient>
			<circle class="st17" cx="330" cy="200.2" r="113.8"/>
			
				<linearGradient id="SVGID_16_" gradientUnits="userSpaceOnUse" x1="233.1" y1="513.8" x2="426.9" y2="513.8" gradientTransform="matrix(1 0 0 -1 0 714)">
				<stop  offset="0" style="stop-color:#FFFFFF;stop-opacity:0"/>
				<stop  offset="1" style="stop-color:#FFFFFF;stop-opacity:0.5"/>
			</linearGradient>
			<circle class="st18" cx="330" cy="200.2" r="96.4"/>
			
				<linearGradient id="SVGID_17_" gradientUnits="userSpaceOnUse" x1="249.1" y1="513.8" x2="410.9" y2="513.8" gradientTransform="matrix(1 0 0 -1 0 714)">
				<stop  offset="0" style="stop-color:#FFFFFF;stop-opacity:0.5"/>
				<stop  offset="1" style="stop-color:#FFFFFF;stop-opacity:0"/>
			</linearGradient>
			<circle class="st19" cx="330" cy="200.2" r="76.9"/>
			
				<linearGradient id="SVGID_18_" gradientUnits="userSpaceOnUse" x1="269.4" y1="513.8" x2="390.6" y2="513.8" gradientTransform="matrix(1 0 0 -1 0 714)">
				<stop  offset="0" style="stop-color:#FFFFFF;stop-opacity:0"/>
				<stop  offset="1" style="stop-color:#FFFFFF;stop-opacity:0.5"/>
			</linearGradient>
			<circle class="st20" cx="330" cy="200.2" r="60.1"/>
		</g>
		<g>
			
				<linearGradient id="SVGID_19_" gradientUnits="userSpaceOnUse" x1="-188.8545" y1="4668.5059" x2="-188.8545" y2="4864.314" gradientTransform="matrix(0.2623 -0.4644 -0.6657 -0.3759 3461.5464 1923.0267)">
				<stop  offset="0" style="stop-color:#FFFFFF;stop-opacity:0.5"/>
				<stop  offset="1" style="stop-color:#FFFFFF;stop-opacity:0"/>
			</linearGradient>
			<path class="st21" d="M266.9,221c24.2,15.7,39.9,29.8,37.3,34.6c-3.4,6-35.2-5.5-71-25.7s-62.1-41.5-58.7-47.5
				c2.9-5.2,26.8,2.6,56.2,17.8"/>
			
				<linearGradient id="SVGID_20_" gradientUnits="userSpaceOnUse" x1="-188.3177" y1="4766.4219" x2="-188.3177" y2="4859.7686" gradientTransform="matrix(0.2623 -0.4644 -0.6657 -0.3759 3461.5464 1923.0267)">
				<stop  offset="0" style="stop-color:#FFFFFF;stop-opacity:0"/>
				<stop  offset="1" style="stop-color:#FFFFFF;stop-opacity:0.5"/>
			</linearGradient>
			<path class="st22" d="M233.5,229.2c-33.9-19.2-58.9-39.3-55.6-45c3.2-5.7,33.3,5.2,67.3,24.4"/>
		</g>
		
			<linearGradient id="SVGID_21_" gradientUnits="userSpaceOnUse" x1="245.1" y1="474.6" x2="245.1" y2="526.1237" gradientTransform="matrix(1 0 0 -1 0 714)">
			<stop  offset="0" style="stop-color:#FFFFFF;stop-opacity:0"/>
			<stop  offset="1" style="stop-color:#FFFFFF"/>
		</linearGradient>
		<circle class="st23" cx="245.1" cy="213.6" r="25.8"/>
		<g>
			
				<linearGradient id="SVGID_22_" gradientUnits="userSpaceOnUse" x1="7314.6553" y1="4778.9995" x2="7314.6553" y2="4974.8462" gradientTransform="matrix(-0.2634 -0.4638 -0.6647 0.3776 5612.4795 1631.8741)">
				<stop  offset="0" style="stop-color:#FFFFFF;stop-opacity:0.5"/>
				<stop  offset="1" style="stop-color:#FFFFFF;stop-opacity:0"/>
			</linearGradient>
			<path class="st24" d="M459.8,58.2c25.9-12.7,46.1-18.9,48.8-14.2c3.4,6-22.8,27.3-58.6,47.7s-67.5,31.9-70.9,25.9
				c-2.9-5.2,16-21.7,44.2-39.1"/>
			
				<linearGradient id="SVGID_23_" gradientUnits="userSpaceOnUse" x1="7314.9976" y1="4876.9155" x2="7314.9976" y2="4970.2456" gradientTransform="matrix(-0.2634 -0.4638 -0.6647 0.3776 5612.4795 1631.8741)">
				<stop  offset="0" style="stop-color:#FFFFFF;stop-opacity:0"/>
				<stop  offset="1" style="stop-color:#FFFFFF;stop-opacity:0.5"/>
			</linearGradient>
			<path class="st25" d="M449.7,91.1c-33.9,19.3-64,30.2-67.2,24.6c-3.2-5.7,21.6-25.9,55.5-45.2"/>
		</g>
		
			<linearGradient id="SVGID_24_" gradientUnits="userSpaceOnUse" x1="2139.4666" y1="4001.0452" x2="2139.4666" y2="4052.5691" gradientTransform="matrix(0.5143 -0.8576 -0.8576 -0.5143 2795.3982 3978.8149)">
			<stop  offset="0" style="stop-color:#FFFFFF;stop-opacity:0"/>
			<stop  offset="1" style="stop-color:#FFFFFF"/>
		</linearGradient>
		<circle class="st26" cx="442.3" cy="73" r="25.8"/>
		
			<linearGradient id="SVGID_25_" gradientUnits="userSpaceOnUse" x1="183.3" y1="590.7" x2="183.3" y2="609.0416" gradientTransform="matrix(1 0 0 -1 0 714)">
			<stop  offset="0" style="stop-color:#FFFFFF;stop-opacity:0"/>
			<stop  offset="1" style="stop-color:#FFFFFF"/>
		</linearGradient>
		<circle class="st27" cx="183.3" cy="114.1" r="9.2"/>
		
			<linearGradient id="SVGID_26_" gradientUnits="userSpaceOnUse" x1="273.9" y1="606.0333" x2="273.9" y2="624.3749" gradientTransform="matrix(1 0 0 -1 0 714)">
			<stop  offset="0" style="stop-color:#FFFFFF;stop-opacity:0"/>
			<stop  offset="1" style="stop-color:#FFFFFF"/>
		</linearGradient>
		<circle class="st28" cx="273.9" cy="98.8" r="9.2"/>
		
			<linearGradient id="SVGID_27_" gradientUnits="userSpaceOnUse" x1="336.3" y1="576" x2="336.3" y2="602.6" gradientTransform="matrix(1 0 0 -1 0 714)">
			<stop  offset="0" style="stop-color:#FFFFFF;stop-opacity:0"/>
			<stop  offset="1" style="stop-color:#FFFFFF"/>
		</linearGradient>
		<circle class="st29" cx="336.3" cy="124.7" r="13.3"/>
	</g>
	<g>
		<g>
			
				<linearGradient id="SVGID_28_" gradientUnits="userSpaceOnUse" x1="0" y1="255.4" x2="649.9" y2="255.4" gradientTransform="matrix(1 0 0 -1 0 714)">
				<stop  offset="0" style="stop-color:#F94E55"/>
				<stop  offset="1" style="stop-color:#F7310B"/>
			</linearGradient>
			<path class="st30" d="M348,313.3c-14.5,7-31.5,7-46,0L0,203.1v481.2c0,16.5,13.4,29.8,29.8,29.8h590.3
				c16.5,0,29.8-13.4,29.8-29.8V203.1L348,313.3z"/>
		</g>
		<path class="st31" d="M620.2,704.1H29.8C13.4,704.1,0,690.8,0,674.3v10c0,16.5,13.4,29.8,29.8,29.8h590.3
			c16.5,0,29.8-13.4,29.8-29.8v-10C650,690.8,636.6,704.1,620.2,704.1z"/>
		<path class="st32" d="M348,313.3c-14.5,7-31.5,7-46,0L0,203.1v3.2l302,110.2c14.5,7,31.5,7,46,0l302-110.2v-3.2L348,313.3z"/>
	</g>
</g>
</svg>
