<?xml version="1.0" encoding="utf-8"?>
<!-- Generator: Adobe Illustrator 21.0.0, SVG Export Plug-In . SVG Version: 6.00 Build 0)  -->
<svg version="1.1" id="图层_1" xmlns="http://www.w3.org/2000/svg" xmlns:xlink="http://www.w3.org/1999/xlink" x="0px" y="0px"
	 viewBox="0 0 650 712.1" style="enable-background:new 0 0 650 712.1;" xml:space="preserve">
<style type="text/css">
	.st0{fill:url(#SVGID_1_);}
	.st1{fill:url(#SVGID_2_);}
	.st2{fill:url(#SVGID_3_);}
	.st3{fill:#BA855A;}
	.st4{fill:url(#SVGID_4_);}
	.st5{opacity:0.2;fill:url(#SVGID_5_);enable-background:new    ;}
	.st6{fill:url(#SVGID_6_);}
	.st7{opacity:0.61;fill:#FFFFFF;enable-background:new    ;}
	.st8{fill:url(#SVGID_7_);}
	.st9{fill:url(#SVGID_8_);}
	.st10{fill:url(#SVGID_9_);}
	.st11{fill:#FFFFFF;}
	.st12{fill:url(#SVGID_10_);}
	.st13{fill:url(#SVGID_11_);}
	.st14{fill:url(#SVGID_12_);}
	.st15{fill:url(#SVGID_13_);}
	.st16{fill:url(#SVGID_14_);}
	.st17{fill:url(#SVGID_15_);}
	.st18{fill:none;stroke:url(#SVGID_16_);stroke-width:11;stroke-miterlimit:10;}
	.st19{fill:none;stroke:url(#SVGID_17_);stroke-width:3;stroke-miterlimit:10;}
	.st20{fill:none;stroke:url(#SVGID_18_);stroke-miterlimit:10;}
	.st21{fill:none;stroke:url(#SVGID_19_);stroke-width:2;stroke-miterlimit:10;}
	.st22{fill:none;stroke:url(#SVGID_20_);stroke-width:3;stroke-miterlimit:10;}
	.st23{fill:none;stroke:url(#SVGID_21_);stroke-miterlimit:10;}
	.st24{fill:none;stroke:url(#SVGID_22_);stroke-width:8;stroke-miterlimit:10;}
	.st25{fill:none;stroke:url(#SVGID_23_);stroke-miterlimit:10;}
	.st26{fill:none;stroke:url(#SVGID_24_);stroke-miterlimit:10;}
	.st27{fill:none;stroke:url(#SVGID_25_);stroke-width:2;stroke-miterlimit:10;}
	.st28{fill:url(#SVGID_26_);}
	.st29{fill:none;stroke:url(#SVGID_27_);stroke-miterlimit:10;}
	.st30{fill:none;stroke:url(#SVGID_28_);stroke-width:2;stroke-miterlimit:10;}
	.st31{fill:url(#SVGID_29_);}
	.st32{fill:url(#SVGID_30_);}
	.st33{fill:url(#SVGID_31_);}
	.st34{fill:url(#SVGID_32_);}
	.st35{fill:#FFC697;}
	.st36{opacity:0.5;fill:url(#SVGID_33_);enable-background:new    ;}
</style>
<g>
	
		<linearGradient id="SVGID_1_" gradientUnits="userSpaceOnUse" x1="324.9504" y1="943.5268" x2="324.9504" y2="1336.9783" gradientTransform="matrix(1 0 0 1 0 -620)">
		<stop  offset="0" style="stop-color:#EEB47E"/>
		<stop  offset="1" style="stop-color:#EF963E"/>
	</linearGradient>
	<path class="st0" d="M606.7,312.1H43.3c-10.1,0-18.3,8.2-18.3,18.3v363.3c0,10.1,8.2,18.3,18.3,18.3h563.3
		c10.1,0,18.3-8.2,18.3-18.3V330.4C625,320.3,616.8,312.1,606.7,312.1z"/>
	
		<linearGradient id="SVGID_2_" gradientUnits="userSpaceOnUse" x1="78.9808" y1="1132.0499" x2="24.3221" y2="1132.0499" gradientTransform="matrix(1 0 0 1 0 -620)">
		<stop  offset="0" style="stop-color:#EEB47E;stop-opacity:0"/>
		<stop  offset="1" style="stop-color:#EF963E"/>
	</linearGradient>
	<path class="st1" d="M80.6,312.1H43.3c-10.1,0-18.3,8.2-18.3,18.3v363.3c0,10.1,8.2,18.3,18.3,18.3h37.2L80.6,312.1L80.6,312.1z"/>
	
		<linearGradient id="SVGID_3_" gradientUnits="userSpaceOnUse" x1="6481.9556" y1="1132.0499" x2="6427.2974" y2="1132.0499" gradientTransform="matrix(-1 0 0 1 7052.9751 -620)">
		<stop  offset="0" style="stop-color:#EEB47E;stop-opacity:0"/>
		<stop  offset="1" style="stop-color:#EF963E"/>
	</linearGradient>
	<path class="st2" d="M569.4,312.1h37.2c10.1,0,18.3,8.2,18.3,18.3v363.3c0,10.1-8.2,18.3-18.3,18.3h-37.2V312.1z"/>
	<polygon class="st3" points="523.2,187 127.2,187 25,245.5 625,245.5 	"/>
	
		<linearGradient id="SVGID_4_" gradientUnits="userSpaceOnUse" x1="325.05" y1="808.6952" x2="325.05" y2="866.1682" gradientTransform="matrix(1 0 0 1 0 -620)">
		<stop  offset="0" style="stop-color:#EEB47E"/>
		<stop  offset="1" style="stop-color:#EF963E"/>
	</linearGradient>
	<rect x="127.2" y="187" class="st4" width="395.7" height="58.4"/>
	
		<linearGradient id="SVGID_5_" gradientUnits="userSpaceOnUse" x1="325" y1="1064.1" x2="325" y2="1036.7" gradientTransform="matrix(1 0 0 1 0 -620)">
		<stop  offset="0" style="stop-color:#000000;stop-opacity:0"/>
		<stop  offset="1" style="stop-color:#000000"/>
	</linearGradient>
	<rect x="25" y="416.7" class="st5" width="600" height="27.4"/>
	<g>
		<g>
			<g>
				
					<linearGradient id="SVGID_6_" gradientUnits="userSpaceOnUse" x1="-103.3224" y1="-1062.0079" x2="-103.3224" y2="-1212.9135" gradientTransform="matrix(0.8589 -0.5121 0.5121 0.8589 741.2293 1118.0402)">
					<stop  offset="0" style="stop-color:#FFFFFF;stop-opacity:0"/>
					<stop  offset="1" style="stop-color:#FFFFFF;stop-opacity:0.1"/>
				</linearGradient>
				<polygon class="st6" points="110.8,257.5 106.5,260 29.2,130.5 33.5,127.9 				"/>
				
					<ellipse transform="matrix(0.8589 -0.5121 0.5121 0.8589 -61.7312 34.3082)" class="st7" cx="31.4" cy="129.2" rx="2.5" ry="2.5"/>
			</g>
			<g>
				
					<linearGradient id="SVGID_7_" gradientUnits="userSpaceOnUse" x1="-99.8969" y1="-396.2622" x2="-99.8969" y2="-547.0627" gradientTransform="matrix(0.9338 -0.3578 0.3578 0.9338 405.2946 613.9952)">
					<stop  offset="0" style="stop-color:#FFFFFF;stop-opacity:0"/>
					<stop  offset="1" style="stop-color:#FFFFFF;stop-opacity:0.1"/>
				</linearGradient>
				<polygon class="st8" points="172.6,278.8 167.9,280.6 113.9,139.8 118.6,138 				"/>
				
					<ellipse transform="matrix(0.9338 -0.3578 0.3578 0.9338 -42.0085 50.7712)" class="st7" cx="116.2" cy="138.9" rx="2.5" ry="2.5"/>
			</g>
			<g>
				
					<linearGradient id="SVGID_8_" gradientUnits="userSpaceOnUse" x1="-130.3176" y1="-621.5942" x2="-130.3176" y2="-727.056" gradientTransform="matrix(0.9157 -0.4018 0.4018 0.9157 490.4256 756.6179)">
					<stop  offset="0" style="stop-color:#FFFFFF;stop-opacity:0"/>
					<stop  offset="1" style="stop-color:#FFFFFF;stop-opacity:0.1"/>
				</linearGradient>
				<polygon class="st9" points="122.9,239.1 119.7,240.5 77.4,143.9 80.6,142.5 				"/>
				
					<ellipse transform="matrix(0.9157 -0.4018 0.4018 0.9157 -50.8775 43.8107)" class="st7" cx="79" cy="143.2" rx="1.7" ry="1.7"/>
			</g>
			<g>
				
					<linearGradient id="SVGID_9_" gradientUnits="userSpaceOnUse" x1="-76.274" y1="-1268.1962" x2="-76.274" y2="-1419.0742" gradientTransform="matrix(0.8239 -0.5668 0.5668 0.8239 889.4146 1288.3389)">
					<stop  offset="0" style="stop-color:#FFFFFF;stop-opacity:0"/>
					<stop  offset="1" style="stop-color:#FFFFFF;stop-opacity:0.5"/>
				</linearGradient>
				<polygon class="st10" points="109.8,285.3 105.7,288.1 20.2,163.8 24.3,161 				"/>
				
					<ellipse transform="matrix(0.8239 -0.5668 0.5668 0.8239 -88.1146 41.2456)" class="st11" cx="22.3" cy="162.4" rx="2.5" ry="2.5"/>
			</g>
			<g>
				
					<linearGradient id="SVGID_10_" gradientUnits="userSpaceOnUse" x1="-41.287" y1="-3113.9084" x2="-41.287" y2="-3213.1829" gradientTransform="matrix(0.7849 -0.6196 0.2357 0.2985 800.6352 1123.7092)">
					<stop  offset="0" style="stop-color:#FFFFFF;stop-opacity:0"/>
					<stop  offset="1" style="stop-color:#FFFFFF;stop-opacity:0.3"/>
				</linearGradient>
				<polygon class="st12" points="35.5,218.7 33,220.8 9.6,191.1 12.1,189.1 				"/>
				
					<ellipse transform="matrix(0.7849 -0.6196 0.6196 0.7849 -115.4718 47.5686)" class="st11" cx="10.8" cy="190.1" rx="1.6" ry="1.6"/>
			</g>
		</g>
		<g>
			<g>
				
					<linearGradient id="SVGID_11_" gradientUnits="userSpaceOnUse" x1="5648.0874" y1="2367.1418" x2="5648.0874" y2="2216.2363" gradientTransform="matrix(-0.8589 -0.5121 -0.5121 0.8589 6576.624 1118.0402)">
					<stop  offset="0" style="stop-color:#FFFFFF;stop-opacity:0"/>
					<stop  offset="1" style="stop-color:#FFFFFF;stop-opacity:0.1"/>
				</linearGradient>
				<polygon class="st13" points="511.1,257.5 515.4,260 592.7,130.5 588.4,127.9 				"/>
				
					<ellipse transform="matrix(0.5121 -0.8589 0.8589 0.5121 177.1052 570.2089)" class="st7" cx="590.5" cy="129.2" rx="2.5" ry="2.5"/>
			</g>
			<g>
				
					<linearGradient id="SVGID_12_" gradientUnits="userSpaceOnUse" x1="6152.7637" y1="1999.5422" x2="6152.7637" y2="1848.7416" gradientTransform="matrix(-0.9338 -0.3578 -0.3578 0.9338 6912.5586 613.9952)">
					<stop  offset="0" style="stop-color:#FFFFFF;stop-opacity:0"/>
					<stop  offset="1" style="stop-color:#FFFFFF;stop-opacity:0.1"/>
				</linearGradient>
				<polygon class="st14" points="449.3,278.8 454,280.6 508,139.8 503.3,138 				"/>
				
					<ellipse transform="matrix(0.3578 -0.9338 0.9338 0.3578 195.0396 561.378)" class="st7" cx="505.7" cy="138.9" rx="2.5" ry="2.5"/>
			</g>
			<g>
				
					<linearGradient id="SVGID_13_" gradientUnits="userSpaceOnUse" x1="6001.4751" y1="2068.5269" x2="6001.4751" y2="1963.0652" gradientTransform="matrix(-0.9157 -0.4018 -0.4018 0.9157 6827.4277 756.6179)">
					<stop  offset="0" style="stop-color:#FFFFFF;stop-opacity:0"/>
					<stop  offset="1" style="stop-color:#FFFFFF;stop-opacity:0.1"/>
				</linearGradient>
				<polygon class="st15" points="499,239.1 502.2,240.5 544.5,143.9 541.3,142.5 				"/>
				
					<ellipse transform="matrix(0.4018 -0.9157 0.9157 0.4018 193.5678 582.8635)" class="st7" cx="542.9" cy="143.3" rx="1.7" ry="1.7"/>
			</g>
			<g>
				
					<linearGradient id="SVGID_14_" gradientUnits="userSpaceOnUse" x1="5440.1167" y1="2526.7915" x2="5440.1167" y2="2375.9136" gradientTransform="matrix(-0.8239 -0.5668 -0.5668 0.8239 6428.439 1288.3389)">
					<stop  offset="0" style="stop-color:#FFFFFF;stop-opacity:0"/>
					<stop  offset="1" style="stop-color:#FFFFFF;stop-opacity:0.5"/>
				</linearGradient>
				<polygon class="st16" points="512.1,285.3 516.2,288.1 601.7,163.8 597.6,161 				"/>
				
					<ellipse transform="matrix(0.5668 -0.8239 0.8239 0.5668 125.9754 564.3599)" class="st11" cx="599.6" cy="162.4" rx="2.5" ry="2.5"/>
			</g>
			<g>
				
					<linearGradient id="SVGID_15_" gradientUnits="userSpaceOnUse" x1="5213.9644" y1="7793.7856" x2="5213.9644" y2="7694.5117" gradientTransform="matrix(-0.7849 -0.6196 -0.2357 0.2985 6517.2183 1123.7092)">
					<stop  offset="0" style="stop-color:#FFFFFF;stop-opacity:0"/>
					<stop  offset="1" style="stop-color:#FFFFFF;stop-opacity:0.3"/>
				</linearGradient>
				<polygon class="st17" points="586.4,218.7 588.9,220.8 612.3,191.1 609.8,189.1 				"/>
				
					<ellipse transform="matrix(0.6196 -0.7849 0.7849 0.6196 83.1456 551.9479)" class="st11" cx="611" cy="190.2" rx="1.6" ry="1.6"/>
			</g>
		</g>
		<g>
			
				<linearGradient id="SVGID_16_" gradientUnits="userSpaceOnUse" x1="177" y1="820.2" x2="467" y2="820.2" gradientTransform="matrix(1 0 0 1 0 -620)">
				<stop  offset="0" style="stop-color:#FFFFFF;stop-opacity:0"/>
				<stop  offset="1" style="stop-color:#FFFFFF;stop-opacity:0.5"/>
			</linearGradient>
			<circle class="st18" cx="322" cy="200.2" r="139.5"/>
			
				<linearGradient id="SVGID_17_" gradientUnits="userSpaceOnUse" x1="199.9534" y1="942.2466" x2="444.0466" y2="698.1534" gradientTransform="matrix(1 0 0 1 0 -620)">
				<stop  offset="0" style="stop-color:#FFFFFF;stop-opacity:0.5"/>
				<stop  offset="1" style="stop-color:#FFFFFF;stop-opacity:0"/>
			</linearGradient>
			<circle class="st19" cx="322" cy="200.2" r="171.1"/>
			
				<linearGradient id="SVGID_18_" gradientUnits="userSpaceOnUse" x1="322" y1="1020.4" x2="322" y2="620" gradientTransform="matrix(1 0 0 1 0 -620)">
				<stop  offset="0" style="stop-color:#FFFFFF;stop-opacity:0.5"/>
				<stop  offset="1" style="stop-color:#FFFFFF;stop-opacity:0"/>
			</linearGradient>
			<circle class="st20" cx="322" cy="200.2" r="199.7"/>
			
				<linearGradient id="SVGID_19_" gradientUnits="userSpaceOnUse" x1="322" y1="1010.5" x2="322" y2="629.9" gradientTransform="matrix(1 0 0 1 0 -620)">
				<stop  offset="0" style="stop-color:#FFFFFF;stop-opacity:0"/>
				<stop  offset="1" style="stop-color:#FFFFFF;stop-opacity:0.5"/>
			</linearGradient>
			<circle class="st21" cx="322" cy="200.2" r="189.3"/>
			
				<linearGradient id="SVGID_20_" gradientUnits="userSpaceOnUse" x1="222.1308" y1="762.5405" x2="421.8692" y2="877.8595" gradientTransform="matrix(1 0 0 1 0 -620)">
				<stop  offset="0" style="stop-color:#FFFFFF;stop-opacity:0"/>
				<stop  offset="1" style="stop-color:#FFFFFF;stop-opacity:0.5"/>
			</linearGradient>
			<circle class="st22" cx="322" cy="200.2" r="113.8"/>
			
				<linearGradient id="SVGID_21_" gradientUnits="userSpaceOnUse" x1="225.1" y1="820.2" x2="418.9" y2="820.2" gradientTransform="matrix(1 0 0 1 0 -620)">
				<stop  offset="0" style="stop-color:#FFFFFF;stop-opacity:0"/>
				<stop  offset="1" style="stop-color:#FFFFFF;stop-opacity:0.5"/>
			</linearGradient>
			<circle class="st23" cx="322" cy="200.2" r="96.4"/>
			
				<linearGradient id="SVGID_22_" gradientUnits="userSpaceOnUse" x1="241.1" y1="820.2" x2="402.9" y2="820.2" gradientTransform="matrix(1 0 0 1 0 -620)">
				<stop  offset="0" style="stop-color:#FFFFFF;stop-opacity:0.5"/>
				<stop  offset="1" style="stop-color:#FFFFFF;stop-opacity:0"/>
			</linearGradient>
			<circle class="st24" cx="322" cy="200.2" r="76.9"/>
			
				<linearGradient id="SVGID_23_" gradientUnits="userSpaceOnUse" x1="261.4" y1="820.2" x2="382.6" y2="820.2" gradientTransform="matrix(1 0 0 1 0 -620)">
				<stop  offset="0" style="stop-color:#FFFFFF;stop-opacity:0"/>
				<stop  offset="1" style="stop-color:#FFFFFF;stop-opacity:0.5"/>
			</linearGradient>
			<circle class="st25" cx="322" cy="200.2" r="60.1"/>
		</g>
		<g>
			
				<linearGradient id="SVGID_24_" gradientUnits="userSpaceOnUse" x1="-1977.7444" y1="-3253.5667" x2="-1977.7444" y2="-3449.3752" gradientTransform="matrix(0.2623 -0.4644 0.6657 0.3759 2980.7776 560.4078)">
				<stop  offset="0" style="stop-color:#FFFFFF;stop-opacity:0.5"/>
				<stop  offset="1" style="stop-color:#FFFFFF;stop-opacity:0"/>
			</linearGradient>
			<path class="st26" d="M258.8,221c24.2,15.7,39.9,29.8,37.3,34.6c-3.4,6-35.2-5.5-71-25.7s-62.1-41.5-58.7-47.5
				c2.9-5.2,26.8,2.6,56.2,17.8"/>
			
				<linearGradient id="SVGID_25_" gradientUnits="userSpaceOnUse" x1="-1977.2076" y1="-3351.4832" x2="-1977.2076" y2="-3444.8298" gradientTransform="matrix(0.2623 -0.4644 0.6657 0.3759 2980.7776 560.4078)">
				<stop  offset="0" style="stop-color:#FFFFFF;stop-opacity:0"/>
				<stop  offset="1" style="stop-color:#FFFFFF;stop-opacity:0.5"/>
			</linearGradient>
			<path class="st27" d="M225.4,229.2c-33.9-19.2-58.9-39.3-55.6-45c3.2-5.7,33.3,5.2,67.3,24.4"/>
		</g>
		
			<linearGradient id="SVGID_26_" gradientUnits="userSpaceOnUse" x1="237.1" y1="859.4" x2="237.1" y2="807.8763" gradientTransform="matrix(1 0 0 1 0 -620)">
			<stop  offset="0" style="stop-color:#FFFFFF;stop-opacity:0"/>
			<stop  offset="1" style="stop-color:#FFFFFF"/>
		</linearGradient>
		<circle class="st28" cx="237.1" cy="213.6" r="25.8"/>
		<g>
			
				<linearGradient id="SVGID_27_" gradientUnits="userSpaceOnUse" x1="4777.0952" y1="-4745.8687" x2="4777.0952" y2="-4941.7158" gradientTransform="matrix(-0.2634 -0.4638 0.6647 -0.3776 4913.9956 467.446)">
				<stop  offset="0" style="stop-color:#FFFFFF;stop-opacity:0.5"/>
				<stop  offset="1" style="stop-color:#FFFFFF;stop-opacity:0"/>
			</linearGradient>
			<path class="st29" d="M451.7,58.2c25.9-12.7,46.1-18.9,48.8-14.2c3.4,6-22.8,27.3-58.6,47.7s-67.5,31.9-70.9,25.9
				c-2.9-5.2,16-21.7,44.2-39.1"/>
			
				<linearGradient id="SVGID_28_" gradientUnits="userSpaceOnUse" x1="4777.4375" y1="-4843.7847" x2="4777.4375" y2="-4937.1152" gradientTransform="matrix(-0.2634 -0.4638 0.6647 -0.3776 4913.9956 467.446)">
				<stop  offset="0" style="stop-color:#FFFFFF;stop-opacity:0"/>
				<stop  offset="1" style="stop-color:#FFFFFF;stop-opacity:0.5"/>
			</linearGradient>
			<path class="st30" d="M441.6,91.1c-33.9,19.3-64,30.2-67.2,24.6c-3.2-5.7,21.6-25.9,55.5-45.2"/>
		</g>
		
			<linearGradient id="SVGID_29_" gradientUnits="userSpaceOnUse" x1="1015.1336" y1="-2838.6384" x2="1015.1336" y2="-2890.1626" gradientTransform="matrix(0.5143 -0.8576 0.8576 0.5143 2368.719 2416.7952)">
			<stop  offset="0" style="stop-color:#FFFFFF;stop-opacity:0"/>
			<stop  offset="1" style="stop-color:#FFFFFF"/>
		</linearGradient>
		<circle class="st31" cx="434.2" cy="73" r="25.8"/>
		
			<linearGradient id="SVGID_30_" gradientUnits="userSpaceOnUse" x1="175.3" y1="743.3" x2="175.3" y2="724.9584" gradientTransform="matrix(1 0 0 1 0 -620)">
			<stop  offset="0" style="stop-color:#FFFFFF;stop-opacity:0"/>
			<stop  offset="1" style="stop-color:#FFFFFF"/>
		</linearGradient>
		<circle class="st32" cx="175.3" cy="114.1" r="9.2"/>
		
			<linearGradient id="SVGID_31_" gradientUnits="userSpaceOnUse" x1="265.8" y1="727.9667" x2="265.8" y2="709.6251" gradientTransform="matrix(1 0 0 1 0 -620)">
			<stop  offset="0" style="stop-color:#FFFFFF;stop-opacity:0"/>
			<stop  offset="1" style="stop-color:#FFFFFF"/>
		</linearGradient>
		<circle class="st33" cx="265.8" cy="98.8" r="9.2"/>
		
			<linearGradient id="SVGID_32_" gradientUnits="userSpaceOnUse" x1="328.3" y1="758" x2="328.3" y2="731.4" gradientTransform="matrix(1 0 0 1 0 -620)">
			<stop  offset="0" style="stop-color:#FFFFFF;stop-opacity:0"/>
			<stop  offset="1" style="stop-color:#FFFFFF"/>
		</linearGradient>
		<circle class="st34" cx="328.3" cy="124.7" r="13.3"/>
	</g>
	<polygon class="st35" points="625,245.5 25,245.5 0,416.7 650,416.7 	"/>
	
		<linearGradient id="SVGID_33_" gradientUnits="userSpaceOnUse" x1="324.9504" y1="1331.2823" x2="324.9504" y2="1308.5544" gradientTransform="matrix(1 0 0 1 0 -620)">
		<stop  offset="0" style="stop-color:#000000"/>
		<stop  offset="1" style="stop-color:#000000;stop-opacity:0"/>
	</linearGradient>
	<path class="st36" d="M606.7,686.8H43.3c-10.1,0-18.3-8.2-18.3-18.3v25.3c0,10.1,8.2,18.3,18.3,18.3h563.3
		c10.1,0,18.3-8.2,18.3-18.3v-25.3C625,678.6,616.8,686.8,606.7,686.8z"/>
</g>
</svg>
