<?xml version="1.0" encoding="utf-8"?>
<!-- Generator: Adobe Illustrator 21.0.0, SVG Export Plug-In . SVG Version: 6.00 Build 0)  -->
<svg version="1.1" id="图层_1" xmlns="http://www.w3.org/2000/svg" xmlns:xlink="http://www.w3.org/1999/xlink" x="0px" y="0px"
	 viewBox="0 0 583 131.4" style="enable-background:new 0 0 583 131.4;" xml:space="preserve">
<style type="text/css">
	.st0{fill:url(#SVGID_1_);}
	.st1{fill:url(#SVGID_2_);}
	.st2{fill:url(#SVGID_3_);}
	.st3{fill:url(#SVGID_4_);}
	.st4{fill:url(#SVGID_5_);}
	.st5{fill:url(#SVGID_6_);}
	.st6{fill:url(#SVGID_7_);}
	.st7{fill:#9B5F10;}
</style>
<g>
	<g>
		<linearGradient id="SVGID_1_" gradientUnits="userSpaceOnUse" x1="342.9555" y1="9.621" x2="342.9555" y2="121.826">
			<stop  offset="0" style="stop-color:#840338"/>
			<stop  offset="1" style="stop-color:#360117"/>
		</linearGradient>
		<path class="st0" d="M576.2,21.6H558l-3.7,5.5v14.3h-12.6V21.6h-15.3v20.6h5.7l-12.8,31.1h-2.7v16.2l-2.9,1.3V73.4H512V56.5h-0.9
			v-4.4l5.6,6.4l7.6-18.3V19.5l-7.6,18.3l-14-15.8l-4.6,2.6v20.6l4.6-2.6l7.6,8.6l-1,2.4v2.9h-1.2l-1.9,4.5l-1,1.2V46.2h-7.1v20.6
			h2.9l-13.2,14.8v-18h-10.5L451,63.8l9.1-21.5V21.6L449.8,46h-9.6V32.1h-4.6V17.8l-1.6,3.8v10.5h-4.5l-1.4,3.4V46h-4.5l-1.4,3.4
			v10.5h-4.5l-4.1,9.7h-4.8v13.3h-2.9V70h1.2l1.4-3.4V52.8h6V32.1h-5.1V17.8l-1.6,3.8v10.5h-4.5l-1.4,3.4V46h-4.5l-1.4,3.4v10.5
			h-7.5l-6.6,3.6V52.8h6V32.1h-25.3v20.6h8v16.8h-3.1v-9.7h-18.1v9.7h-0.2v20.6h4.5l-1.6,3.8h-11.4v-9.6H323l15.7-35.9V38.3l8.1-9.7
			V8l-16.7,20v19.6l-7.5,17h-28.1l0.9-2.1h21.6v-20h1.9V21.9h-32.9V4.2L282.7,8v13.9h-12.1l-5.4,6.1v13.9H259l-4,8.8v13.9h-21.8
			l-16.1-0.1l-1.9-0.5l9.6-2.3l9.8-21.7V19.5l-9.8,21.7l-11.2,2.7V31.7h-48.8V17l-2,2.5v12.2h-8.6l-10.5,13.1h-14.9v19l-1.5,0.3
			v20.6l5-1.1v9h-5.2l-1.8,3.8v12.7h-21.5v20.6h89.1l20.1-44.3v-1.4l4,1l16.1,0.1h15.5l-11,7.2h-21.5v20.6h21.5l26.6-17.6v17.6h45
			l5.8-8h21.2v4.1l-8.1,1.5v20.6l51-9.6l44.1,9.6l5.7-13.6v-3.2h0.3l9.2-21.7v-2.7h3l2.5-5.8l33.4-0.1h9.9v13l-33.8-5.8v20.6
			l35.9,6.1l5-12.1V120l31-13.8l19.5,13.2l6.5-15.9V94h4.1l18.9-46.3v-5.5h1.8l5.8-14.3V7.3L576.2,21.6z M154.6,52.3h47.2v8.5
			L174,54.2l-19.4,4.1V52.3z M150,57.6v1.7l-1.6,0.3L150,57.6z M169.4,81.6v11.2h-5.1l-1.7,3.8v12.7h-13.9V98.4h6.9V78.8l18.4-3.9
			l12.3,2.9h-15.1L169.4,81.6z M193.1,109.3H185V98.4h6.8V79.1l13.5,3.2L193.1,109.3z M286,92.5h-17l11-7.2h1.7V64.6h-1.7
			l-21.3,14.1V64.6H258l0.9-2.1h21v-20h15.2l-3.6,8.2v13.9h-7v20.6h1.5V92.5z M309.4,92.5h-20.2l1.6-3.7v-3.6h23.8L309.4,92.5z
			 M355.9,105.6l0.9-2.1h10L355.9,105.6z M387.3,102.9l-2.9-0.6V82.9h-0.3l4.2-2.3h10.1v2.3h-11.1V102.9z M391.6,103.9l-1.6-0.4h1.6
			V103.9z M413.7,108.7l-20.5-4.5v-0.7h20.5V108.7z M429.3,94h-10.9V82.9h-1.7l1-2.3h1.3v9.7h11.9L429.3,94z M441.5,69.6h-11.4v-2.9
			h12.7L441.5,69.6z M495.1,99.1v-4.8l9.8-11.1V94h1.5L495.1,99.1z M537.4,93.6l-12-8.1l-3.3,1.5l10.3-25h5.8V42.3h2.9V62h0.9
			l-4.7,11.4V93.6z M545,98.7l-7.5-5l3.7-9V94h5.7L545,98.7z M555.5,73.4h-9.7l2.4-5.9V62h6V47.7l3.7-5.5h10.2L555.5,73.4z"/>
		<linearGradient id="SVGID_2_" gradientUnits="userSpaceOnUse" x1="53.1788" y1="9.621" x2="53.1788" y2="121.826">
			<stop  offset="0" style="stop-color:#840338"/>
			<stop  offset="1" style="stop-color:#360117"/>
		</linearGradient>
		<polygon class="st1" points="54.3,3.3 52,22 52,42.7 54.3,23.9 		"/>
		<linearGradient id="SVGID_3_" gradientUnits="userSpaceOnUse" x1="243.6579" y1="9.621" x2="243.6579" y2="121.826">
			<stop  offset="0" style="stop-color:#840338"/>
			<stop  offset="1" style="stop-color:#360117"/>
		</linearGradient>
		<rect x="240.7" y="34.9" class="st2" width="5.9" height="20.6"/>
		<linearGradient id="SVGID_4_" gradientUnits="userSpaceOnUse" x1="485.0045" y1="9.621" x2="485.0045" y2="121.826">
			<stop  offset="0" style="stop-color:#840338"/>
			<stop  offset="1" style="stop-color:#360117"/>
		</linearGradient>
		<polygon class="st3" points="488.3,51.9 489.1,66.9 495.3,66.9 495.3,47 495.3,46.2 495.3,26.3 474.7,38.2 474.7,58.9 488.3,51 		
			"/>
		<linearGradient id="SVGID_5_" gradientUnits="userSpaceOnUse" x1="67.3842" y1="9.621" x2="67.3842" y2="121.826">
			<stop  offset="0" style="stop-color:#840338"/>
			<stop  offset="1" style="stop-color:#360117"/>
		</linearGradient>
		<path class="st4" d="M105.7,86.2l14.9,0l4-0.6V65l-4,0.6l-5.2,0l6.5-13.9v-8.8h5.4l6.5-13.9V8.3l-6.5,13.9h-9.7V1.6l-3.2,6.7v13.9
			h-6.6l-4.2,8.8V45H67.9l4.6-9.5v7.5h19.9V22.2H78.7V1.6L59.4,42.1V45H58l-1.8,3.8h-8.7v16.8l-2.9,0V59l1.2-0.6V44.1h2.9V23.5H36.7
			V42l-18,8.1v15.6h-7.9v10.5h-8v17.8L1,94.1v20.6l48.8-4.8l6.5-13.8v-9.9l1.3,0v15.6L92.8,115l6.6-14V96l6.3-5.8V86.2z M107.8,42.9
			h8.5l-1,2.1h-8.5L107.8,42.9z M33.6,74.2L31.7,78v13.1L17,92.5v-6.3h2.1V70.4l21.5-9.6v4.8h-0.3l-6.8,4.6V74.2z M49.8,89.3
			l-14.3,1.4v-1.1l5-3.4l10.8,0L49.8,89.3z"/>
	</g>
	<g>
		<linearGradient id="SVGID_6_" gradientUnits="userSpaceOnUse" x1="28.895" y1="68.0913" x2="536.5313" y2="166.0211">
			<stop  offset="5.618000e-03" style="stop-color:#F0CC7E"/>
			<stop  offset="0.3618" style="stop-color:#F4DB8C"/>
			<stop  offset="0.3646" style="stop-color:#F9F3E5"/>
			<stop  offset="0.4272" style="stop-color:#F6E7C8"/>
			<stop  offset="0.4981" style="stop-color:#F3DCAF"/>
			<stop  offset="0.5778" style="stop-color:#F1D49C"/>
			<stop  offset="0.6698" style="stop-color:#F0CE8E"/>
			<stop  offset="0.7855" style="stop-color:#EFCB86"/>
			<stop  offset="1" style="stop-color:#EFCA84"/>
		</linearGradient>
		<polygon class="st5" points="105.7,69.2 88.4,69.2 83.2,73.7 64.4,66.5 57.6,80.9 92.8,94.1 99.4,80 95.6,78.5 		"/>
		<linearGradient id="SVGID_7_" gradientUnits="userSpaceOnUse" x1="41.629" y1="2.0824" x2="549.2653" y2="100.0122">
			<stop  offset="5.618000e-03" style="stop-color:#F0CC7E"/>
			<stop  offset="0.3618" style="stop-color:#F4DB8C"/>
			<stop  offset="0.3646" style="stop-color:#F9F3E5"/>
			<stop  offset="0.4272" style="stop-color:#F6E7C8"/>
			<stop  offset="0.4981" style="stop-color:#F3DCAF"/>
			<stop  offset="0.5778" style="stop-color:#F1D49C"/>
			<stop  offset="0.6698" style="stop-color:#F0CE8E"/>
			<stop  offset="0.7855" style="stop-color:#EFCB86"/>
			<stop  offset="1" style="stop-color:#EFCA84"/>
		</linearGradient>
		<path class="st6" d="M576.2,21.1L582,6.7h-49.7l-5.9,14.4h15.3l-3.5,5.5h-14l-11,26.6h-3.8l1.7-4.2h-12.9v-3.2h7.1l-1.1-15h-6
			v-6.6l4.6-2.7l14,15.8l7.6-18.4L510.3,3.5l-28.1,16.3l-7.5,18l20.7-12v5h-7.1l0.9,15h6.2V49H470l0,0H450h-11.9h-16l1.4-3.4h26.2
			l10.3-24.5H434l1.6-3.8h-15l-1.6,3.8h-11.3l1.6-3.8h-15.4l-1.6,3.8H367l-4.6,10.6h25.3l-1.5,3.4h-23.8l-13.1,24.5h18l-18.3,9.7
			h21.4l17.8-9.7h14.3l-4.1,9.7h7.5V72h-59.6v0h-31.7v0h-6.3l-5,6.5H286l4.8-10.8h-6.2v-3.6h38.1l16.1-36.8h-8.6l16.7-20.1h-64.1
			l3.4-3.8h-16.5l-28.9,30.8h5.9L239,51.4l-16-0.1l-21.2-5.1l23-5.5l9.8-21.8h-71.8l2-2.5h-14l-21.9,27.9h14.9l10.5-13.1h59.4
			l-0.9,1.9L183,39.7l-27.1-6.5L150,45.8l4.5,1.1L126.2,53l-50.2-1.1l-0.4-3.6H59l0.4,3.6H47.6v-3.6h8.7l1.8-3.8h4.8h3.6h48.8
			l6.5-13.9h-18.2l4.2-8.9h19.5l6.5-13.9h-19.4l3.2-6.8h-15.4l-3.2,6.8H79.1l-6.6,13.9h19.9l-4.2,8.9H69.5l-5.3,11.1h-4.8L78.7,1
			H63.3l-9.4,19.6L52,21.5l2.3-18.8h-15L36.7,23h12.1l-22.1,9.9l-8,16.7l27.3-12.3l-5.2,11h4v3.6H17.1l-6.4,13.3h8.4L2.7,75.8H17
			L15.5,79l-7.8,0.8L1,93.9L49.8,89l6.6-13.8l-24.6,2.5l3.7-7.8h-1.9l6.8-4.6h80.1l0,0l4-0.9v0.2l-20.6,44.5h89.1l20.1-44.5h-85.7
			v-0.8l46.6-9.9l43.1,10.4h16.1l0,0.1h25.5l-42.5,28h21.5l42.2-28h1.7v3.6h-6.5l-10.8,24.4h45l5.8-8h25.3l-4.2,9.6h15.6l4.8-11.2
			h27.7v3H378l-1.8,4.2l-42.3,7.6l-5.7,13.2l51-9.6l44.1,9.6l5.7-13.6l-37.5-7.6l1.6-3.8h-5.9v-3h31.1l-4.7,11.2h15.6l9.2-21.8
			h-29.7v-2.7h4.8l4.1-9.7h12.4l-1.1,2.5h-6.9l-3,7.2h22.5l2.5-5.8h33.4v-0.1h10.5l-14.6,16.3l-13.8-2.7l-6.1,14.5l35.9,6.1
			l5.7-13.8l-7.8-1.5l19-21.6l1.9-4.5h3.8l-7,17h8.7v4.6l-12.8,5.8l-6.5,15.7l31-13.8L545,98.5l6.5-16l-14-9.5l10.9-26.6h-7.1v-5.5
			h13.1l-13.1,32.1h14.3l18.9-46.5h-20.1l3.7-5.5H576.2z M429.5,31.6h10.7l-1.4,3.4h-10.7L429.5,31.6z M380.3,49h-9.8l1.9-3.4h9.4
			L380.3,49z M171.2,77.5h20.6l-1.7,3.8h-20.6L171.2,77.5z M164.3,92.5H185l-1.7,3.8h-20.7L164.3,92.5z M134.1,77.5h21.5l-1.7,3.8
			h-21.5L134.1,77.5z M148.7,92.5l-1.7,3.8h-21.5l1.8-3.8H148.7z M313.2,50.3h-21.6l3.9-8.9h21.6L313.2,50.3z M276,50.3h-21l4-8.9
			h21L276,50.3z M265.2,27.5l5.5-6.1H319l-5.4,6.1H265.2z M407.1,49h-11.3l1.4-3.4h11.3L407.1,49z M413,35h-11.3l1.4-3.4h11.3
			L413,35z M538.3,46.4H534l-11.1,27l-6.4,2.9v-3.3h2.7l13.2-32.1h5.8V46.4z"/>
	</g>
	<g>
		<path class="st7" d="M92.8,95.1c-0.1,0-0.2,0-0.4-0.1L57.3,81.8c-0.3-0.1-0.5-0.3-0.6-0.6c-0.1-0.3-0.1-0.5,0-0.8l6.8-14.4
			c0.2-0.5,0.8-0.7,1.3-0.5l18.2,7l4.8-4.1c0.2-0.2,0.4-0.2,0.6-0.2h17.3c0.4,0,0.8,0.3,0.9,0.6c0.1,0.4,0.1,0.8-0.3,1.1l-8.9,8.2
			l2.3,0.9c0.3,0.1,0.5,0.3,0.6,0.6c0.1,0.3,0.1,0.5,0,0.8l-6.6,14.1C93.5,94.9,93.2,95.1,92.8,95.1z M59,80.3l33.3,12.5L98,80.6
			l-2.7-1.1c-0.3-0.1-0.6-0.4-0.6-0.7c-0.1-0.3,0.1-0.7,0.3-0.9l8.2-7.6H88.8l-5,4.2c-0.3,0.2-0.7,0.3-1,0.2l-17.9-6.9L59,80.3z"/>
		<path class="st7" d="M423.3,111.6c-0.1,0-0.1,0-0.2,0l-43.9-9.6l-50.8,9.6c-0.4,0.1-0.7-0.1-1-0.4c-0.2-0.3-0.3-0.7-0.1-1L333,97
			c0.1-0.3,0.4-0.5,0.7-0.6l8.9-1.6h-6.4c-0.3,0-0.7-0.2-0.8-0.5c-0.2-0.3-0.2-0.6-0.1-0.9l3.6-8.2h-23.3l-5.5,7.6
			c-0.2,0.3-0.5,0.4-0.8,0.4h-45c-0.3,0-0.7-0.2-0.8-0.5c-0.2-0.3-0.2-0.6-0.1-0.9l9.7-21.9l-34.8,23.1c-0.2,0.1-0.4,0.2-0.6,0.2
			h-21.5c-0.4,0-0.8-0.3-1-0.7c-0.1-0.4,0-0.9,0.4-1.1l39.7-26.2h-22.1c-0.1,0-0.2,0-0.3-0.1h-15.8c-0.1,0-0.2,0-0.2,0l-2.7-0.7
			c0,0.2,0,0.4-0.1,0.5L194,109.5c-0.2,0.4-0.5,0.6-0.9,0.6h-89.1c-0.3,0-0.7-0.2-0.8-0.5c-0.2-0.3-0.2-0.6-0.1-1l19.9-42.9l-2,0.4
			c-0.1,0-0.2,0.1-0.4,0.1H40.7l-4.5,3c0,0,0,0.1,0.1,0.1c0.2,0.3,0.2,0.7,0.1,1l-3,6.2l22.8-2.4c0.4,0,0.7,0.1,0.9,0.4
			c0.2,0.3,0.2,0.7,0.1,1l-6.6,13.8c-0.1,0.3-0.5,0.5-0.8,0.6L1.1,94.9c-0.4,0-0.7-0.1-0.9-0.4c-0.2-0.3-0.2-0.7-0.1-1l6.7-14.1
			c0.1-0.3,0.4-0.5,0.8-0.6l7.2-0.8l0.6-1.2H2.7c-0.4,0-0.8-0.3-1-0.7s0-0.9,0.4-1.1l13.6-8.7h-5c-0.3,0-0.7-0.2-0.8-0.5
			c-0.2-0.3-0.2-0.7-0.1-1l6.4-13.3c0.2-0.3,0.5-0.6,0.9-0.6h26.6v-1.6h-3c-0.3,0-0.7-0.2-0.8-0.5c-0.2-0.3-0.2-0.7-0.1-1l4.1-8.5
			L19.1,50.5c-0.4,0.2-0.8,0.1-1.1-0.2c-0.3-0.3-0.4-0.8-0.2-1.1l8-16.7c0.1-0.2,0.3-0.4,0.5-0.5l17.9-8h-7.5
			c-0.3,0-0.6-0.1-0.8-0.3c-0.2-0.2-0.3-0.5-0.2-0.8l2.6-20.3c0.1-0.5,0.5-0.9,1-0.9h15c0.3,0,0.6,0.1,0.7,0.3
			c0.2,0.2,0.3,0.5,0.2,0.8l-2.1,16.9l9.1-19.1C62.5,0.2,62.9,0,63.3,0h15.4c0.3,0,0.7,0.2,0.8,0.5c0.2,0.3,0.2,0.7,0.1,1L61,40.6
			h2.6l5-10.5c0.2-0.3,0.5-0.6,0.9-0.6h18l3.2-6.9H72.4c-0.3,0-0.7-0.2-0.8-0.5c-0.2-0.3-0.2-0.7-0.1-1l6.6-13.9
			c0.2-0.3,0.5-0.6,0.9-0.6h19.2l2.9-6.2c0.2-0.3,0.5-0.6,0.9-0.6h15.4c0.3,0,0.7,0.2,0.8,0.5s0.2,0.7,0.1,1l-2.5,5.3h17.8
			c0.3,0,0.7,0.2,0.8,0.5c0.2,0.3,0.2,0.7,0.1,1l-6.5,13.9c-0.2,0.4-0.5,0.6-0.9,0.6h-18.8l-3.2,6.9h16.7c0.3,0,0.7,0.2,0.8,0.5
			c0.2,0.3,0.2,0.6,0.1,1l-6.5,13.9c-0.2,0.4-0.5,0.6-0.9,0.6H58.7l-1.5,3.2c-0.2,0.3-0.5,0.6-0.9,0.6h-7.7v1.6h9.7L58,48.4
			c0-0.3,0.1-0.6,0.2-0.8c0.2-0.2,0.5-0.3,0.7-0.3h16.6c0.5,0,0.9,0.4,1,0.9l0.3,2.7l49.2,1l23.9-5.2l-0.2,0
			c-0.3-0.1-0.5-0.3-0.7-0.5c-0.1-0.3-0.1-0.6,0-0.9l5.9-12.7c0.1-0.2,0.3-0.4,0.5-0.5h-0.7l-10.2,12.7c-0.2,0.2-0.5,0.4-0.8,0.4
			h-14.9c-0.4,0-0.7-0.2-0.9-0.6c-0.2-0.3-0.1-0.8,0.1-1.1l21.9-27.9c0.2-0.2,0.5-0.4,0.8-0.4h14c0.4,0,0.7,0.2,0.9,0.6
			c0.2,0.3,0.1,0.8-0.1,1.1l-0.7,0.9h69.7c0.3,0,0.7,0.2,0.8,0.5c0.2,0.3,0.2,0.6,0.1,1l-9.8,21.8c-0.1,0.3-0.4,0.5-0.7,0.6
			l-18.9,4.5l17,4.1l15.3,0.1l6.7-14.9h-4.3c-0.4,0-0.8-0.2-0.9-0.6c-0.2-0.4-0.1-0.8,0.2-1.1l28.9-30.8c0.2-0.2,0.5-0.3,0.7-0.3
			h16.5c0.4,0,0.7,0.2,0.9,0.6c0.2,0.4,0.1,0.8-0.2,1.1L285,6.4h61.9c0.4,0,0.7,0.2,0.9,0.6c0.2,0.4,0.1,0.8-0.1,1.1l-15.4,18.4h6.5
			c0.3,0,0.7,0.2,0.8,0.5c0.2,0.3,0.2,0.6,0.1,0.9l-16.1,36.8c-0.2,0.4-0.5,0.6-0.9,0.6h-37.1v1.6h5.2c0.3,0,0.7,0.2,0.8,0.5
			c0.2,0.3,0.2,0.6,0.1,0.9l-4.1,9.4h15.3l4.7-6.2c0.2-0.2,0.5-0.4,0.8-0.4h6.1c0.1,0,0.2,0,0.3,0h31.7c0.1,0,0.1,0,0.2,0h58.5v-0.7
			h-6.5c-0.3,0-0.6-0.2-0.8-0.4c-0.2-0.3-0.2-0.6-0.1-0.9l3.6-8.3h-12.5L371,70.1c-0.1,0.1-0.3,0.1-0.5,0.1h-21.4
			c-0.5,0-0.9-0.3-1-0.8c-0.1-0.4,0.1-0.9,0.5-1.1l14.7-7.8h-14c-0.4,0-0.7-0.2-0.9-0.5s-0.2-0.7,0-1l13.1-24.5
			c0.2-0.3,0.5-0.5,0.9-0.5h23.2l0.6-1.4h-23.8c-0.3,0-0.7-0.2-0.8-0.5c-0.2-0.3-0.2-0.6-0.1-0.9l4.6-10.6c0.2-0.4,0.5-0.6,0.9-0.6
			h24.6l1.4-3.2c0.2-0.4,0.5-0.6,0.9-0.6h15.4c0.3,0,0.6,0.2,0.8,0.4c0.2,0.3,0.2,0.6,0.1,0.9l-1,2.4h9.1l1.4-3.2
			c0.2-0.4,0.5-0.6,0.9-0.6h15c0.3,0,0.6,0.2,0.8,0.4c0.2,0.3,0.2,0.6,0.1,0.9l-1,2.4h24.6c0.3,0,0.6,0.2,0.8,0.4
			c0.2,0.3,0.2,0.6,0.1,0.9L450.7,46c-0.2,0.4-0.5,0.6-0.9,0.6h-25.5l-0.6,1.4h46.2c0,0,0.1,0,0.1,0h24.4v-1.2h-5.2
			c-0.5,0-1-0.4-1-0.9l-0.8-14.2l-12.1,7c-0.4,0.2-0.8,0.2-1.2-0.1c-0.3-0.3-0.4-0.7-0.3-1.1l7.5-18c0.1-0.2,0.2-0.4,0.4-0.5
			l28.1-16.3c0.4-0.2,0.9-0.2,1.2,0.2l14.1,15.4c0.3,0.3,0.3,0.7,0.2,1.1l-7.6,18.4c-0.1,0.3-0.4,0.5-0.8,0.6
			c-0.3,0.1-0.7-0.1-0.9-0.3l-13.4-15.2l-3.4,2v5.1h5c0.5,0,1,0.4,1,0.9l1.1,15c0,0.3-0.1,0.6-0.3,0.8c-0.2,0.2-0.5,0.3-0.7,0.3
			h-6.1V48h11.9c0.3,0,0.6,0.2,0.8,0.4c0.2,0.3,0.2,0.6,0.1,0.9l-1.2,2.8h1.6l10.7-26c0.2-0.4,0.5-0.6,0.9-0.6h13.5l2.2-3.5h-13.4
			c-0.3,0-0.6-0.2-0.8-0.4s-0.2-0.6-0.1-0.9l5.9-14.4c0.2-0.4,0.5-0.6,0.9-0.6H582c0.3,0,0.6,0.2,0.8,0.4c0.2,0.3,0.2,0.6,0.1,0.9
			l-5.8,14.4c-0.2,0.4-0.5,0.6-0.9,0.6h-17.7l-2.4,3.5h18.2c0.3,0,0.6,0.2,0.8,0.4c0.2,0.3,0.2,0.6,0.1,0.9l-18.9,46.5
			c-0.2,0.4-0.5,0.6-0.9,0.6h-14.3c-0.3,0-0.6-0.2-0.8-0.4c-0.2-0.3-0.2-0.6-0.1-0.9l12.5-30.7h-10.6v3.5h6.1c0.3,0,0.6,0.2,0.8,0.4
			s0.2,0.6,0.1,0.9l-10.6,25.9l13.4,9.1c0.4,0.3,0.5,0.8,0.4,1.2l-6.5,16c-0.1,0.3-0.3,0.5-0.6,0.6c-0.3,0.1-0.6,0-0.9-0.1
			l-19.1-12.9l-30.5,13.6c-0.4,0.2-0.8,0.1-1.1-0.2c-0.3-0.3-0.4-0.7-0.2-1.1L500,83c0.1-0.2,0.3-0.4,0.5-0.5l12.2-5.5v-3H505
			c-0.3,0-0.6-0.2-0.8-0.4c-0.2-0.3-0.2-0.6-0.1-0.9l6.4-15.6h-1.6l-1.6,3.9c0,0.1-0.1,0.2-0.2,0.3l-17.9,20.2l6.1,1.2
			c0.3,0.1,0.6,0.2,0.7,0.5c0.1,0.3,0.2,0.6,0,0.9l-5.7,13.8c-0.2,0.4-0.6,0.7-1.1,0.6l-35.9-6.1c-0.3-0.1-0.6-0.2-0.7-0.5
			c-0.1-0.3-0.2-0.6,0-0.9l6.1-14.5c0.2-0.4,0.6-0.7,1.1-0.6l13.3,2.6l12.7-14.2h-7.9c-0.1,0.1-0.2,0.1-0.4,0.1h-32.8l-2.2,5.2
			c-0.2,0.4-0.5,0.6-0.9,0.6H419c-0.3,0-0.6-0.2-0.8-0.4c-0.2-0.3-0.2-0.6-0.1-0.9l3-7.2c0.2-0.4,0.5-0.6,0.9-0.6h6.3l0.2-0.5h-10.2
			l-3.9,9.1c-0.2,0.4-0.5,0.6-0.9,0.6h-3.8V71h28.7c0.3,0,0.6,0.2,0.8,0.4c0.2,0.3,0.2,0.6,0.1,0.9l-9.2,21.8
			c-0.2,0.4-0.5,0.6-0.9,0.6h-6l5.9,1.2c0.3,0.1,0.5,0.2,0.7,0.5c0.1,0.3,0.2,0.6,0,0.9l-5.7,13.6
			C424,111.3,423.7,111.6,423.3,111.6z M379.2,100c0.1,0,0.1,0,0.2,0l43.2,9.4l4.9-11.7l-36.3-7.4c-0.3-0.1-0.5-0.2-0.7-0.5
			c-0.1-0.3-0.2-0.6,0-0.9l1-2.4h-4.4c-0.6,0-1-0.4-1-1v-3c0-0.6,0.4-1,1-1h31.1c0.3,0,0.6,0.2,0.8,0.4c0.2,0.3,0.2,0.6,0.1,0.9
			l-4.2,9.8h13.4L437,73h-28.2c-0.6,0-1-0.4-1-1v-2.7c0-0.6,0.4-1,1-1h4.1l3.9-9.1c0.2-0.4,0.5-0.6,0.9-0.6h12.4
			c0.3,0,0.6,0.2,0.8,0.4c0.2,0.3,0.2,0.6,0.1,0.9l-1.1,2.5c-0.2,0.4-0.5,0.6-0.9,0.6h-6.3l-2.2,5.2h20.3L443,63
			c0.2-0.4,0.5-0.6,0.9-0.6H477c0.1-0.1,0.2-0.1,0.4-0.1h10.5c0.4,0,0.8,0.2,0.9,0.6c0.2,0.4,0.1,0.8-0.2,1.1l-14.6,16.3
			c-0.2,0.3-0.6,0.4-0.9,0.3l-13-2.6l-5.3,12.6l33.9,5.8l4.9-12l-6.6-1.3c-0.4-0.1-0.6-0.3-0.8-0.7c-0.1-0.3,0-0.7,0.2-1l18.9-21.4
			l1.8-4.4c0.2-0.4,0.5-0.6,0.9-0.6h3.8c0.3,0,0.6,0.2,0.8,0.4s0.2,0.6,0.1,0.9l-6.4,15.6h7.2c0.6,0,1,0.4,1,1v4.6
			c0,0.4-0.2,0.7-0.6,0.9l-12.4,5.6l-5.4,13.1L525,84.4c0.3-0.1,0.7-0.1,1,0.1L544.5,97l5.7-14.1l-13.4-9.1
			c-0.4-0.3-0.5-0.8-0.4-1.2l10.3-25.2h-5.6c-0.6,0-1-0.4-1-1v-5.5c0-0.6,0.4-1,1-1h13.1c0.3,0,0.6,0.2,0.8,0.4
			c0.2,0.3,0.2,0.6,0.1,0.9l-12.5,30.7h12.2l18-44.5h-18.6c-0.4,0-0.7-0.2-0.9-0.5c-0.2-0.3-0.2-0.7,0.1-1l3.7-5.5
			c0.2-0.3,0.5-0.4,0.8-0.4h17.5l5-12.4H533l-5.1,12.4h13.8c0.4,0,0.7,0.2,0.9,0.5s0.2,0.7,0,1l-3.5,5.5c-0.2,0.3-0.5,0.5-0.8,0.5
			h-13.4l-10.7,26c-0.2,0.4-0.5,0.6-0.9,0.6h-3.8c-0.3,0-0.6-0.2-0.8-0.4s-0.2-0.6-0.1-0.9l1.2-2.8h-11.4c-0.6,0-1-0.4-1-1v-3.2
			c0-0.6,0.4-1,1-1h6l-1-13h-5c-0.6,0-1-0.4-1-1v-6.6c0-0.4,0.2-0.7,0.5-0.9l4.6-2.7c0.4-0.2,0.9-0.2,1.3,0.2l12.9,14.6l6.7-16.3
			L510.1,4.8L483,20.5l-6.2,14.9L494.8,25c0.3-0.2,0.7-0.2,1,0c0.3,0.2,0.5,0.5,0.5,0.9v5c0,0.6-0.4,1-1,1h-6l0.8,13h5.3
			c0.6,0,1,0.4,1,1V49c0,0.6-0.4,1-1,1h-25.3c0,0-0.1,0-0.1,0h-47.8c-0.3,0-0.6-0.2-0.8-0.4c-0.2-0.3-0.2-0.6-0.1-0.9l1.4-3.4
			c0.2-0.4,0.5-0.6,0.9-0.6h25.5l9.5-22.5H434c-0.3,0-0.6-0.2-0.8-0.4c-0.2-0.3-0.2-0.6-0.1-0.9l1-2.4h-12.9l-1.4,3.2
			c-0.2,0.4-0.5,0.6-0.9,0.6h-11.3c-0.3,0-0.6-0.2-0.8-0.4c-0.2-0.3-0.2-0.6-0.1-0.9l1-2.4h-13.3l-1.4,3.2c-0.2,0.4-0.5,0.6-0.9,0.6
			h-24.6l-3.7,8.6h23.8c0.3,0,0.6,0.2,0.8,0.4c0.2,0.3,0.2,0.6,0.1,0.9l-1.5,3.4c-0.2,0.4-0.5,0.6-0.9,0.6H363L351,58.5h16.4
			c0.5,0,0.9,0.3,1,0.8c0.1,0.4-0.1,0.9-0.5,1.1l-14.7,7.8h17.2l17.6-9.6c0.1-0.1,0.3-0.1,0.5-0.1h14.3c0.3,0,0.6,0.2,0.8,0.4
			c0.2,0.3,0.2,0.6,0.1,0.9l-3.6,8.3h6c0.6,0,1,0.4,1,1V72c0,0.6-0.4,1-1,1h-59.6c-0.1,0-0.1,0-0.2,0h-31.2c-0.1,0-0.2,0-0.3,0h-5.9
			l-4.7,6.2c-0.2,0.2-0.5,0.4-0.8,0.4H286c-0.3,0-0.7-0.2-0.8-0.5c-0.2-0.3-0.2-0.6-0.1-0.9l4.1-9.4h-4.7c-0.6,0-1-0.4-1-1v-3.6
			c0-0.6,0.4-1,1-1H322l15.2-34.8h-7.1c-0.4,0-0.7-0.2-0.9-0.6c-0.2-0.4-0.1-0.8,0.1-1.1l15.4-18.4h-62c-0.4,0-0.7-0.2-0.9-0.6
			c-0.2-0.4-0.1-0.8,0.2-1.1l1.9-2.1h-13.8l-27,28.9h3.6c0.3,0,0.7,0.2,0.8,0.5c0.2,0.3,0.2,0.6,0.1,1l-7.6,16.9
			c-0.2,0.4-0.5,0.6-0.9,0.6l-16-0.1c-0.1,0-0.2,0-0.2,0l-21.2-5.1c-0.4-0.1-0.8-0.5-0.8-1c0-0.5,0.3-0.9,0.8-1l22.5-5.4l9-19.9
			h-70.3c-0.4,0-0.7-0.2-0.9-0.6c-0.2-0.3-0.1-0.8,0.1-1.1l0.7-0.9h-11.4L131,43.3h12.3l10.2-12.7c0.2-0.2,0.5-0.4,0.8-0.4h59.4
			c0.3,0,0.7,0.2,0.8,0.5c0.2,0.3,0.2,0.6,0.1,1l-0.9,1.9c-0.1,0.3-0.4,0.5-0.7,0.6l-29.8,6.5c-0.1,0-0.3,0-0.4,0l-26.3-6.4l-5,10.8
			l3.3,0.8c0.5,0.1,0.8,0.5,0.8,1c0,0.5-0.3,0.9-0.8,1l-28.4,6.1c-0.1,0-0.2,0-0.2,0l-50.2-1.1c-0.5,0-0.9-0.4-1-0.9l-0.3-2.7H60.1
			l0.3,2.5c0,0.3-0.1,0.6-0.2,0.8c-0.2,0.2-0.5,0.3-0.7,0.3H47.6c-0.6,0-1-0.4-1-1v-3.6c0-0.6,0.4-1,1-1h8l1.5-3.2
			c0.2-0.3,0.5-0.6,0.9-0.6h56.7l5.6-11.9h-16.7c-0.3,0-0.7-0.2-0.8-0.5c-0.2-0.3-0.2-0.7-0.1-1l4.2-8.9c0.2-0.4,0.5-0.6,0.9-0.6
			h18.8l5.6-11.9h-17.9c-0.3,0-0.7-0.2-0.8-0.5s-0.2-0.7-0.1-1L116,2h-13.2l-2.9,6.2c-0.2,0.3-0.5,0.6-0.9,0.6H79.7L74,20.7h18.3
			c0.3,0,0.7,0.2,0.8,0.5c0.2,0.3,0.2,0.7,0.1,1L89,31c-0.2,0.3-0.5,0.6-0.9,0.6h-18l-5,10.5c-0.2,0.3-0.5,0.6-0.9,0.6h-4.8
			c-0.3,0-0.7-0.2-0.8-0.5c-0.2-0.3-0.2-0.7-0.1-1L77.1,2H63.9l-9.1,19.1c-0.1,0.2-0.3,0.4-0.5,0.5l-1.9,0.8c-0.3,0.1-0.7,0.1-1-0.1
			c-0.3-0.2-0.4-0.6-0.4-0.9l2.2-17.7h-13L37.8,22h11c0.5,0,0.9,0.3,1,0.8c0.1,0.5-0.1,0.9-0.6,1.1l-21.8,9.8l-6.7,13.9l24.8-11.1
			c0.4-0.2,0.8-0.1,1.1,0.2c0.3,0.3,0.4,0.8,0.2,1.1l-4.6,9.6h2.4c0.6,0,1,0.4,1,1v3.6c0,0.6-0.4,1-1,1H17.8l-5.4,11.3h6.8
			c0.4,0,0.8,0.3,1,0.7s0,0.9-0.4,1.1L6.1,74.8H17c0.3,0,0.7,0.2,0.8,0.5c0.2,0.3,0.2,0.7,0.1,1l-1.5,3.2c-0.1,0.3-0.4,0.5-0.8,0.6
			l-7.2,0.8L2.7,92.7l46.4-4.6l5.6-11.7l-22.8,2.4c-0.4,0-0.7-0.1-0.9-0.4c-0.2-0.3-0.2-0.7-0.1-1l3-6.4h-0.3c-0.4,0-0.8-0.3-1-0.7
			c-0.1-0.4,0-0.9,0.4-1.1l6.8-4.6c0.2-0.1,0.4-0.2,0.6-0.2h80l4-0.8c0.3-0.1,0.6,0,0.8,0.2c0.2,0.2,0.4,0.5,0.4,0.8v0.2
			c0,0.1,0,0.3-0.1,0.4l-20,43.1h86.9l19.2-42.5h-84.2c-0.6,0-1-0.4-1-1v-0.8c0-0.5,0.3-0.9,0.8-1l46.6-9.9c0.1,0,0.3,0,0.4,0
			l43,10.3h16c0.1,0,0.2,0,0.3,0.1h25.1c0.4,0,0.8,0.3,1,0.7c0.1,0.4,0,0.9-0.4,1.1l-39.7,26.2h17.9l41.9-27.8
			c0.2-0.1,0.4-0.2,0.6-0.2h1.7c0.6,0,1,0.4,1,1v3.6c0,0.6-0.4,1-1,1h-5.8l-9.9,22.4h42.9l5.5-7.6c0.2-0.3,0.5-0.4,0.8-0.4h25.3
			c0.3,0,0.7,0.2,0.8,0.5c0.2,0.3,0.2,0.6,0.1,0.9l-3.6,8.2h13.4l4.6-10.6c0.2-0.4,0.5-0.6,0.9-0.6h27.7c0.6,0,1,0.4,1,1v3
			c0,0.6-0.4,1-1,1h-5.7l-1.6,3.6c-0.1,0.3-0.4,0.5-0.7,0.6l-41.7,7.5l-4.8,11L379,100C379.1,100,379.1,100,379.2,100z M357.4,83.6
			l-4,9.3l22.1-4l1.6-3.7c0.2-0.4,0.5-0.6,0.9-0.6h5.4v-1H357.4z M393,88.6l20.1,4.1l3.9-9.1h-28.6v1h4.9c0.3,0,0.6,0.2,0.8,0.4
			c0.2,0.3,0.2,0.6,0.1,0.9L393,88.6z M277.8,66.8h2.8v-1.6h-0.4L277.8,66.8z M127.4,63.7L127.4,63.7L127.4,63.7z M132.9,63.6h77.5
			L174,54.8L132.9,63.6z M156.4,32.2l26.6,6.4l29.1-6.4H156.4z M490.5,29.8h3.9v-2.2L490.5,29.8z M183.2,97.3h-20.7
			c-0.3,0-0.7-0.2-0.8-0.5c-0.2-0.3-0.2-0.6-0.1-1l1.7-3.8c0.2-0.4,0.5-0.6,0.9-0.6H185c0.3,0,0.7,0.2,0.8,0.5
			c0.2,0.3,0.2,0.6,0.1,1l-1.7,3.8C184,97.1,183.6,97.3,183.2,97.3z M164.1,95.3h18.5l0.8-1.8h-18.5L164.1,95.3z M147,97.3h-21.5
			c-0.3,0-0.7-0.2-0.8-0.5c-0.2-0.3-0.2-0.6-0.1-1l1.8-3.8c0.2-0.4,0.5-0.6,0.9-0.6h21.5c0.3,0,0.7,0.2,0.8,0.5
			c0.2,0.3,0.2,0.6,0.1,1l-1.7,3.8C147.7,97.1,147.4,97.3,147,97.3z M127,95.3h19.3l0.8-1.8h-19.3L127,95.3z M190.1,82.3h-20.6
			c-0.3,0-0.7-0.2-0.8-0.5c-0.2-0.3-0.2-0.6-0.1-1l1.7-3.8c0.2-0.4,0.5-0.6,0.9-0.6h20.6c0.3,0,0.7,0.2,0.8,0.5
			c0.2,0.3,0.2,0.6,0.1,1l-1.7,3.8C190.8,82.1,190.4,82.3,190.1,82.3z M171,80.3h18.4l0.8-1.8h-18.4L171,80.3z M153.9,82.3h-21.5
			c-0.3,0-0.7-0.2-0.8-0.5c-0.2-0.3-0.2-0.6-0.1-1l1.8-3.8c0.2-0.4,0.5-0.6,0.9-0.6h21.5c0.3,0,0.7,0.2,0.8,0.5
			c0.2,0.3,0.2,0.6,0.1,1l-1.7,3.8C154.6,82.1,154.2,82.3,153.9,82.3z M133.9,80.3h19.3l0.8-1.8h-19.3L133.9,80.3z M516.5,77.3
			c-0.2,0-0.4-0.1-0.5-0.2c-0.3-0.2-0.5-0.5-0.5-0.8v-3.3c0-0.6,0.4-1,1-1h2.1l12.9-31.5c0.2-0.4,0.5-0.6,0.9-0.6h5.8
			c0.6,0,1,0.4,1,1v5.5c0,0.6-0.4,1-1,1h-3.6l-10.8,26.4c-0.1,0.2-0.3,0.4-0.5,0.5l-6.4,2.9C516.8,77.3,516.7,77.3,516.5,77.3z
			 M517.5,74.1v0.7l1.7-0.7H517.5z M533.1,41.9l-12.9,31.5c0,0.1-0.1,0.2-0.1,0.2l2-0.9l10.9-26.7c0.2-0.4,0.5-0.6,0.9-0.6h3.3v-3.5
			H533.1z M313.2,51.3h-21.6c-0.3,0-0.7-0.2-0.8-0.5c-0.2-0.3-0.2-0.6-0.1-0.9l3.9-8.9c0.2-0.4,0.5-0.6,0.9-0.6h21.6
			c0.3,0,0.7,0.2,0.8,0.5c0.2,0.3,0.2,0.6,0.1,0.9l-3.9,8.9C314,51,313.6,51.3,313.2,51.3z M293.1,49.3h19.4l3-6.9h-19.4L293.1,49.3
			z M276,51.3h-21c-0.3,0-0.7-0.2-0.8-0.5c-0.2-0.3-0.2-0.6-0.1-1l4-8.9c0.2-0.4,0.5-0.6,0.9-0.6h21c0.3,0,0.7,0.2,0.8,0.5
			c0.2,0.3,0.2,0.6,0.1,1l-3.9,8.9C276.8,51,276.4,51.3,276,51.3z M256.6,49.3h18.8l3.1-6.9h-18.8L256.6,49.3z M407.1,50h-11.3
			c-0.3,0-0.6-0.2-0.8-0.4c-0.2-0.3-0.2-0.6-0.1-0.9l1.4-3.4c0.2-0.4,0.5-0.6,0.9-0.6h11.3c0.3,0,0.6,0.2,0.8,0.4
			c0.2,0.3,0.2,0.6,0.1,0.9l-1.4,3.4C407.9,49.7,407.5,50,407.1,50z M397.3,48h9.1l0.6-1.4h-9.1L397.3,48z M380.3,50h-9.8
			c-0.4,0-0.7-0.2-0.9-0.5c-0.2-0.3-0.2-0.7,0-1l1.9-3.4c0.2-0.3,0.5-0.5,0.9-0.5h9.4c0.3,0,0.6,0.2,0.8,0.4
			c0.2,0.3,0.2,0.6,0.1,0.9l-1.5,3.4C381,49.7,380.7,50,380.3,50z M372.1,48h7.5l0.6-1.4h-7.3L372.1,48z M438.8,36h-10.7
			c-0.3,0-0.6-0.2-0.8-0.4c-0.2-0.3-0.2-0.6-0.1-0.9l1.4-3.4c0.2-0.4,0.5-0.6,0.9-0.6h10.7c0.3,0,0.6,0.2,0.8,0.4
			c0.2,0.3,0.2,0.6,0.1,0.9l-1.4,3.4C439.5,35.8,439.2,36,438.8,36z M429.6,34h8.5l0.6-1.4h-8.5L429.6,34z M413,36h-11.3
			c-0.3,0-0.6-0.2-0.8-0.4c-0.2-0.3-0.2-0.6-0.1-0.9l1.4-3.4c0.2-0.4,0.5-0.6,0.9-0.6h11.3c0.3,0,0.6,0.2,0.8,0.4
			c0.2,0.3,0.2,0.6,0.1,0.9l-1.4,3.4C413.8,35.8,413.4,36,413,36z M403.3,34h9.1l0.6-1.4h-9.1L403.3,34z M313.6,28.5h-48.4
			c-0.4,0-0.8-0.2-0.9-0.6s-0.1-0.8,0.2-1.1l5.5-6.1c0.2-0.2,0.5-0.3,0.7-0.3H319c0.4,0,0.7,0.2,0.9,0.6c0.2,0.4,0.1,0.8-0.2,1.1
			l-5.4,6.1C314.1,28.3,313.9,28.5,313.6,28.5z M267.4,26.5h45.7l3.7-4.1h-45.7L267.4,26.5z"/>
	</g>
</g>
</svg>
